<?xml version="1.0" encoding="utf-8"?>
<!-- Generator: Adobe Illustrator 22.1.0, SVG Export Plug-In . SVG Version: 6.00 Build 0)  -->
<svg version="1.1" id="Capa_1" xmlns="http://www.w3.org/2000/svg" xmlns:xlink="http://www.w3.org/1999/xlink" x="0px" y="0px"
	 viewBox="0 0 70 70" style="enable-background:new 0 0 70 70;" xml:space="preserve">
<style type="text/css">
	.st0{fill:#FEB401;}
	.st1{fill:#FEB502;}
</style>
<g>
	<path class="st0" d="M21.9,30.1c4.7,0.1,9.6,0.9,14.2,3.2c2.1,1.1,3.9,2.4,5.2,4.4c1.9,2.8,1.6,6.1-0.5,8.7c-2.1,2.5-4.7,3.9-7.7,5
		c-5.5,1.9-11.1,2.3-16.8,1.5c-3.8-0.5-7.4-1.6-10.6-3.6c-1.7-1.1-3.2-2.4-4.2-4.2c-1.5-2.7-1.1-5.7,1-8.1c2.1-2.4,4.7-3.9,7.7-4.9
		C13.7,30.6,17.6,30.1,21.9,30.1z"/>
	<path class="st0" d="M48.5,23.7c-5.1,0-10-0.8-14.6-3.2c-2-1.1-3.9-2.4-5.2-4.4c-1.9-2.8-1.7-6.1,0.5-8.7c2-2.4,4.7-3.9,7.6-5
		c4.7-1.7,9.6-2.2,14.7-1.8c4,0.3,7.9,1.2,11.5,3.1c2,1,3.8,2.4,5.1,4.3c2,2.9,1.8,6.2-0.5,8.9c-1.6,1.9-3.7,3.3-6,4.3
		c-3.7,1.6-7.7,2.4-11.7,2.5C49.4,23.7,48.9,23.7,48.5,23.7z"/>
	<path class="st1" d="M0.5,54.5C1.5,57.9,4,60,7,61.6c3.5,1.9,7.3,2.7,11.2,3.1c4.4,0.4,8.8,0.1,13-1.1c3.1-0.9,6-2.2,8.4-4.4
		c1.4-1.2,2.4-2.7,2.8-4.6c0.9,3.1-0.2,6.7-2.6,9c-2.6,2.4-5.6,3.8-9,4.7c-7.6,1.9-15,1.7-22.3-1.3c-2.7-1.1-5.2-2.7-6.8-5.2
		c-0.7-1.1-1.2-2.3-1.2-3.6C0.5,56.9,0.5,55.7,0.5,54.5z"/>
	<path class="st1" d="M0.5,46.4c1.2,4.1,4.3,6.3,8,7.9c5.1,2.3,10.6,2.8,16.1,2.4c4-0.3,7.9-1.2,11.4-3.1c2.1-1.1,4.1-2.5,5.4-4.6
		c0.4-0.7,0.7-1.5,1.1-2.2c0.6,3.8-0.3,7.2-3.7,9.7c-2.9,2.2-6.2,3.5-9.7,4.2c-6.5,1.3-12.9,1.1-19.1-1.1c-2.9-1-5.6-2.5-7.6-5
		c-1.1-1.4-1.8-2.9-1.8-4.7C0.5,48.7,0.5,47.5,0.5,46.4z"/>
	<path class="st1" d="M69.3,16.9c0,1.6,0.2,3.1,0,4.6c-0.3,2.3-1.8,4-3.6,5.4c-3.1,2.4-6.6,3.6-10.4,4.3c-5,0.9-10,0.8-15-0.3
		c-0.4-0.1-0.7-0.2-1.1-0.4c-1.8-1.1-3.8-2-5.9-2.6c-1.8-0.5-3-1.7-4.1-3c-1.2-1.5-1.9-3.2-1.8-5.2c0-0.9,0-1.8,0-2.8
		c0.4,0.9,0.7,1.7,1.2,2.5c1.3,2.1,3.2,3.5,5.3,4.6c3.8,2,7.8,2.9,12.1,3.1c4.8,0.3,9.4-0.2,13.9-1.8c2.9-1,5.6-2.5,7.6-4.8
		C68.4,19.4,69,18.2,69.3,16.9z"/>
	<path class="st1" d="M69.5,24.9c-0.1,2.1,0.3,4.2-0.6,6.1c-1,2.1-2.6,3.6-4.5,4.8c-3.3,2.1-6.9,3.2-10.8,3.7
		c-2.2,0.3-4.5,0.2-6.7,0.3c-0.2,0-0.5-0.2-0.6-0.4c-0.4-1.5-1-2.8-1.8-4.1c0-0.1-0.1-0.2-0.1-0.3c0.9,0.1,1.7,0.1,2.5,0.2
		c5.6,0.2,11.1-0.6,16.1-3.2c2.1-1.1,4.1-2.5,5.3-4.7C68.8,26.6,69.1,25.8,69.5,24.9z"/>
	<path class="st1" d="M69.3,41.2c0,1.5,0.2,3,0,4.5c-0.3,2.3-1.9,4-3.7,5.4c-3,2.3-6.5,3.5-10.2,4.3c-2.7,0.5-5.4,0.7-8.1,0.7
		c-0.2,0-0.4,0-0.8-0.1c0-1.5,0-3,0-4.7c1.7,0,3.4,0.1,5,0c4.5-0.3,8.8-1.4,12.7-3.8c2-1.2,3.7-2.8,4.6-5
		C69.1,42,69.2,41.6,69.3,41.2z"/>
	<path class="st1" d="M46.5,47.8c0-1.6,0-3,0-4.7c1.7,0,3.3,0.1,5,0c4.6-0.3,8.9-1.4,12.9-3.9c2-1.2,3.7-2.8,4.6-5
		c0.2-0.4,0.3-0.8,0.5-1.2c0,2.1,0.4,4.1-0.6,6.1c-1,2.1-2.6,3.5-4.4,4.7c-3.3,2.1-6.9,3.2-10.7,3.7c-2,0.3-4.1,0.3-6.1,0.4
		C47.3,47.9,47,47.9,46.5,47.8z"/>
</g>
</svg>
