<?xml version="1.0" encoding="utf-8"?>
<!-- Generator: Adobe Illustrator 22.1.0, SVG Export Plug-In . SVG Version: 6.00 Build 0)  -->
<svg version="1.1" id="Capa_1" xmlns="http://www.w3.org/2000/svg" xmlns:xlink="http://www.w3.org/1999/xlink" x="0px" y="0px"
	 viewBox="0 0 51.8 51.8" style="enable-background:new 0 0 51.8 51.8;" xml:space="preserve">
<style type="text/css">
	.st0{fill:#E00ED1;}
</style>
<g>
	<g>
		<circle class="st0" cx="36.4" cy="4.8" r="4.8"/>
		<path class="st0" d="M10.8,49.8c3.9-5,7.7-13.1,11.6-19.1c0.2,0.6,0.6,1.1,1.3,1.5c2.8,1.6,5.3,3.8,7.4,6.2
			c-0.8,3.3-1.7,6.6-2.5,9.9c-0.9,3.7,4.9,4.8,5.8,1.1c0.9-3.5,1.8-6.9,2.6-10.4c0.1-0.3,0.1-0.6,0.1-0.9c0.2-0.7,0.1-1.5-0.5-2.3
			c-2.3-2.9-4.9-5.3-7.9-7.4c1.4-2.6,2.8-5.2,4.2-7.8c2.4,3.3,5.5,5.8,9.9,7.1c3.5,1,5-4.4,1.5-5.4c-4.4-1.3-7.1-4.4-8.9-8.4
			c-0.6-2.8-3.8-4.7-6.5-4c-0.1,0-0.2,0-0.2,0c-3.6,0.3-7.2,0.6-10.8,0.8c-3.4,0.3-4.9,6.1-6.3,8.7c-1.6,3.2,3.2,6.1,4.9,2.8
			c1-2,2-4,3.1-6c1.5-0.1,3-0.2,4.5-0.3c-1.4,2.5-2.8,5-4.1,7.6c-0.2,0.3-0.3,0.7-0.4,1c-1.1,1.9-7.7,13.1-13.4,21.6
			C3.7,49.2,8.4,52.9,10.8,49.8z"/>
	</g>
</g>
</svg>
