<?xml version="1.0" standalone="no"?>
<!DOCTYPE svg PUBLIC "-//W3C//DTD SVG 20010904//EN"
 "http://www.w3.org/TR/2001/REC-SVG-20010904/DTD/svg10.dtd">
<svg version="1.0" xmlns="http://www.w3.org/2000/svg"
 width="803.000000pt" height="803.000000pt" viewBox="0 0 803.000000 803.000000"
 preserveAspectRatio="xMidYMid meet">
<metadata>
Created by potrace 1.11, written by Peter Selinger 2001-2013
</metadata>
<g transform="translate(0.000000,803.000000) scale(0.100000,-0.100000)"
fill="#000000" stroke="none">
<path d="M4070 7959 c0 -25 37 -89 51 -89 5 0 9 25 9 55 0 54 0 55 -30 55 -24
0 -30 -4 -30 -21z"/>
<path d="M3595 7600 c-3 -5 -10 -48 -16 -96 -7 -63 -6 -90 2 -100 17 -21 29
-7 29 32 0 19 7 49 16 65 12 24 13 37 4 64 -13 38 -25 51 -35 35z"/>
<path d="M5322 7593 c-5 -10 -12 -52 -16 -93 -7 -91 -49 -226 -68 -222 -7 2
-21 11 -31 21 -17 17 -21 17 -50 3 -51 -24 -67 -42 -61 -68 3 -13 -1 -45 -10
-71 -20 -62 -21 -212 -2 -258 8 -19 31 -56 50 -81 25 -32 36 -57 36 -80 0 -31
-3 -34 -28 -34 -43 0 -66 -31 -59 -77 11 -63 74 -87 87 -33 4 18 13 26 33 28
16 2 31 10 34 18 3 9 16 20 29 25 13 4 24 16 24 25 0 8 13 29 29 45 l30 29 21
-30 c12 -17 26 -28 31 -25 14 9 10 66 -6 95 -11 21 -11 27 0 40 8 10 14 50 17
115 3 95 5 102 36 144 31 42 41 71 24 71 -4 0 -13 -5 -19 -11 -26 -26 -99 51
-127 135 -14 42 -15 57 -4 104 8 38 17 56 30 60 14 3 18 14 17 46 -2 78 -26
119 -47 79z"/>
<path d="M4356 7498 c-8 -27 -25 -136 -31 -194 -7 -71 0 -92 30 -104 15 -6 26
-22 33 -52 6 -25 20 -52 31 -62 18 -17 19 -16 14 28 -5 42 -3 48 28 77 32 30
33 31 20 72 -14 45 -40 148 -47 184 -8 42 -69 82 -78 51z"/>
<path d="M3750 7420 c-26 -48 -30 -122 -15 -259 17 -152 12 -280 -13 -323 -9
-16 -20 -28 -24 -28 -13 0 -10 298 3 305 7 5 2 16 -12 31 -21 22 -24 23 -40 8
-16 -14 -22 -13 -68 7 -29 12 -54 19 -58 16 -12 -13 -6 -96 15 -197 12 -58 22
-134 22 -170 0 -36 5 -99 10 -140 16 -120 23 -131 53 -80 20 33 38 38 57 14
11 -12 11 -24 -2 -64 -9 -27 -13 -51 -10 -54 13 -14 31 -4 42 24 14 34 37 36
54 5 16 -29 27 -34 58 -28 26 5 28 3 28 -30 0 -40 9 -50 70 -71 48 -16 59 -16
36 3 -13 11 -10 18 24 52 21 21 44 39 51 39 7 0 20 7 30 16 13 12 22 13 38 5
13 -7 22 -8 26 -1 4 6 13 5 25 -2 15 -10 22 -10 31 -1 10 10 15 9 24 -4 9 -12
16 -13 33 -4 44 24 48 10 8 -34 -23 -25 -45 -45 -50 -45 -4 0 -14 -6 -22 -14
-7 -8 -19 -16 -26 -18 -7 -3 -9 -12 -5 -22 6 -15 15 -17 42 -13 19 3 37 1 40
-4 10 -15 25 -10 25 7 0 12 6 15 26 10 18 -5 38 1 69 19 53 31 77 32 90 3 17
-37 56 -59 92 -52 18 4 35 14 38 24 7 21 -28 84 -40 72 -15 -14 4 94 24 133
20 38 29 105 14 105 -5 0 -17 -7 -27 -15 -11 -8 -28 -15 -37 -15 -10 0 -24 -8
-31 -18 -14 -18 -50 -44 -105 -74 -30 -17 -33 -16 -54 1 l-23 18 21 12 c39 20
76 166 43 166 -11 0 -16 15 -20 53 -5 54 -22 75 -28 35 -2 -13 -7 -23 -12 -23
-10 0 -17 30 -29 120 -4 36 -12 73 -16 83 -5 12 -3 17 8 17 8 0 17 6 20 14 4
10 -8 22 -37 36 -74 35 -96 9 -97 -120 -1 -133 0 -152 12 -202 10 -38 10 -50
-1 -63 -10 -12 -10 -19 -2 -27 17 -17 15 -25 -8 -31 -16 -4 -21 1 -26 21 -3
15 -14 50 -25 77 -23 61 -24 75 -4 75 17 0 20 16 5 25 -5 3 -10 19 -10 35 0
15 -3 35 -6 44 -10 27 -24 7 -24 -37 0 -32 -3 -38 -12 -29 -20 20 -58 14 -67
-10 -8 -21 -8 -21 -16 3 l-8 24 -4 -22 c-6 -32 -17 -28 -29 10 -5 17 -15 31
-21 30 -19 -4 -25 33 -13 77 9 35 8 53 -11 115 -19 66 -20 80 -9 119 10 36 9
57 -4 120 -20 100 -39 136 -71 136 -14 0 -29 -8 -35 -20z m520 -840 c0 -23
-10 -26 -28 -8 -18 18 -15 28 8 28 13 0 20 -7 20 -20z"/>
<path d="M3051 7396 c-17 -20 -6 -64 24 -101 l25 -30 -3 70 c-1 55 -5 70 -18
73 -9 1 -21 -4 -28 -12z"/>
<path d="M2874 7392 c-16 -10 -34 -47 -34 -69 0 -10 -7 -31 -15 -46 l-15 -28
29 6 c19 4 41 0 60 -9 27 -14 31 -14 45 0 23 22 20 76 -7 115 -23 35 -43 45
-63 31z"/>
<path d="M4466 7371 c-8 -12 3 -41 15 -41 12 0 12 37 0 45 -5 3 -12 1 -15 -4z"/>
<path d="M3400 7315 c0 -3 4 -13 9 -23 5 -9 13 -30 17 -46 12 -40 34 -46 34
-9 0 16 5 34 12 41 17 17 -8 42 -43 42 -16 0 -29 -2 -29 -5z"/>
<path d="M2992 7268 c-21 -21 -8 -118 17 -118 22 0 41 50 35 90 -7 42 -27 53
-52 28z"/>
<path d="M2548 7237 c-84 -29 -110 -47 -69 -47 11 0 53 14 94 30 42 17 79 30
84 30 5 0 22 -13 38 -30 35 -37 46 -37 82 -4 22 20 23 24 8 19 -45 -16 -52
-15 -78 9 -35 32 -51 32 -159 -7z"/>
<path d="M4124 7205 c-9 -21 15 -74 38 -86 18 -10 19 -8 12 38 -8 58 -36 85
-50 48z"/>
<path d="M3268 7185 c-33 -28 -33 -28 -10 -83 27 -66 46 -53 50 36 2 39 -1 72
-5 72 -4 0 -20 -12 -35 -25z"/>
<path d="M4310 7096 c-8 -34 -10 -69 -5 -93 4 -21 8 -55 9 -75 2 -21 5 -41 9
-44 3 -3 19 18 36 48 47 81 40 168 -15 205 -20 13 -21 11 -34 -41z"/>
<path d="M5596 7098 c-11 -38 -36 -198 -36 -229 0 -23 9 -49 25 -70 23 -32 44
-72 58 -111 12 -34 25 -18 24 27 -2 39 2 48 32 72 l33 29 -26 82 c-14 46 -26
99 -26 118 0 27 -8 42 -32 65 -36 32 -47 35 -52 17z"/>
<path d="M4808 7052 c-6 -22 8 -62 22 -62 15 0 23 26 16 55 -7 29 -31 33 -38
7z"/>
<path d="M3335 7034 c-11 -8 -30 -13 -43 -11 -35 7 -48 -26 -25 -63 20 -34 31
-37 49 -12 12 16 14 16 28 -3 13 -18 12 -22 -10 -45 -13 -14 -45 -32 -71 -40
l-48 -14 40 -4 c54 -5 66 -16 54 -51 -8 -24 -5 -38 21 -87 43 -82 71 -105 111
-94 75 22 78 81 8 222 -44 90 -49 108 -44 145 5 35 3 43 -17 57 -27 19 -28 19
-53 0z"/>
<path d="M2916 7021 c-10 -11 -48 -35 -86 -55 -69 -36 -124 -88 -141 -133 -26
-70 1 -177 62 -247 30 -34 39 -51 34 -66 -9 -28 20 -37 45 -15 10 9 33 24 52
33 26 14 37 29 54 77 11 33 35 89 52 125 29 59 31 70 26 135 -7 90 -20 131
-47 150 -27 19 -30 19 -51 -4z"/>
<path d="M3935 6949 c-4 -6 2 -21 14 -33 12 -12 21 -28 21 -34 0 -7 4 -12 9
-12 16 0 24 21 12 33 -6 6 -11 19 -11 28 0 9 -7 20 -16 23 -21 8 -22 8 -29 -5z"/>
<path d="M4664 6876 c-7 -31 4 -68 19 -63 7 2 13 22 15 45 2 32 0 42 -12 42
-9 0 -18 -11 -22 -24z"/>
<path d="M2547 6864 c-12 -13 -7 -51 8 -64 24 -20 42 2 29 37 -9 27 -25 39
-37 27z"/>
<path d="M1235 6799 c-87 -71 -98 -76 -141 -56 -54 26 -70 22 -97 -28 -14 -25
-21 -47 -16 -50 12 -8 29 3 29 19 0 7 9 21 19 30 18 16 21 16 48 2 15 -9 35
-21 44 -28 18 -12 32 -3 126 83 42 38 71 80 56 78 -4 0 -35 -23 -68 -50z"/>
<path d="M4492 6816 c-33 -37 -48 -101 -18 -77 10 9 16 9 21 1 5 -8 13 -6 26
6 19 17 24 54 10 88 -6 16 -11 14 -39 -18z"/>
<path d="M4380 6782 c0 -13 39 -46 46 -39 12 12 -8 47 -27 47 -10 0 -19 -4
-19 -8z"/>
<path d="M3092 6744 c4 -21 37 -33 63 -24 18 6 17 9 -12 23 -40 21 -55 21 -51
1z"/>
<path d="M4841 6727 c-22 -36 -28 -77 -12 -77 6 0 13 5 16 11 5 7 16 3 31 -12
46 -43 82 13 47 73 -27 46 -55 48 -82 5z"/>
<path d="M5551 6703 c-17 -60 -15 -63 35 -63 l47 0 -7 33 c-6 30 -37 67 -57
67 -4 0 -13 -17 -18 -37z"/>
<path d="M2400 6661 c0 -22 5 -43 11 -46 15 -10 17 -5 21 40 2 31 -1 40 -14
43 -15 3 -18 -4 -18 -37z"/>
<path d="M1962 6658 c-21 -21 -7 -108 18 -108 21 0 40 45 33 83 -6 39 -27 49
-51 25z"/>
<path d="M2483 6608 c-27 -43 -33 -62 -23 -72 15 -15 50 28 50 60 0 26 -14 32
-27 12z"/>
<path d="M4750 6570 c-9 -5 -15 -25 -16 -49 0 -39 -18 -87 -39 -104 -19 -16
130 18 190 43 18 8 17 9 -8 9 -22 1 -31 8 -43 39 -27 63 -30 67 -50 70 -10 1
-26 -2 -34 -8z"/>
<path d="M2210 6556 c0 -17 47 -76 61 -76 11 0 -8 50 -28 72 -19 22 -33 23
-33 4z"/>
<path d="M2624 6543 c-7 -25 -24 -29 -42 -11 -16 16 -23 7 -29 -41 -5 -33 -3
-41 11 -41 9 0 16 6 16 13 0 8 9 22 19 31 19 17 20 17 31 -5 9 -16 14 -19 20
-8 7 10 11 10 25 -1 13 -11 18 -11 31 2 20 20 7 51 -19 44 -13 -3 -26 3 -38
17 l-19 22 -6 -22z"/>
<path d="M2330 6522 c0 -27 15 -52 32 -52 12 0 10 25 -4 55 -15 33 -28 32 -28
-3z"/>
<path d="M3050 6531 c0 -37 64 -56 73 -21 3 14 -1 21 -17 25 -11 4 -29 9 -38
11 -13 4 -18 0 -18 -15z"/>
<path d="M4926 6495 c-19 -29 -12 -31 47 -14 32 8 36 13 26 25 -18 22 -55 17
-73 -11z"/>
<path d="M5621 6482 c-5 -9 -12 -35 -16 -57 -12 -71 -15 -75 -39 -69 -15 3
-28 -2 -41 -16 -17 -19 -17 -22 -3 -37 9 -8 34 -16 55 -17 32 -1 38 2 36 19
-1 11 4 38 11 60 30 91 28 175 -3 117z"/>
<path d="M3260 6460 c20 -13 33 -13 25 0 -3 6 -14 10 -23 10 -15 0 -15 -2 -2
-10z"/>
<path d="M2333 6441 c-17 -11 -46 -21 -65 -23 -25 -2 -34 -8 -36 -25 -5 -32
25 -83 49 -83 18 0 19 -5 15 -50 -3 -29 -1 -50 4 -50 6 0 10 5 10 10 0 6 5 10
11 10 6 0 8 -8 4 -19 -8 -27 8 -60 59 -119 25 -30 46 -58 46 -62 0 -5 -16 -25
-35 -44 -25 -26 -35 -44 -35 -67 0 -31 -1 -31 -19 -15 -18 16 -20 16 -50 -13
-18 -17 -39 -31 -48 -31 -9 0 -62 29 -117 64 -56 35 -106 66 -113 70 -6 3 -23
2 -37 -4 -31 -11 -34 -44 -10 -96 17 -36 68 -71 138 -95 41 -15 57 -36 37 -48
-16 -10 -5 -55 20 -77 17 -15 19 -15 25 0 3 9 15 16 25 16 24 0 25 -31 1 -53
-16 -15 -20 -15 -39 -2 -27 19 -37 6 -35 -42 1 -18 -1 -33 -4 -33 -14 0 -53
27 -96 65 -30 27 -87 60 -155 90 -154 67 -247 119 -422 239 -85 58 -163 106
-173 106 -9 0 -22 -9 -28 -20 -17 -32 12 -76 73 -106 28 -15 75 -41 102 -59
28 -17 101 -58 163 -90 62 -31 140 -78 173 -103 55 -41 60 -48 55 -74 -4 -22
0 -33 19 -50 14 -12 25 -31 25 -42 0 -26 9 -40 36 -54 15 -8 24 -8 32 0 8 8
19 2 41 -21 17 -18 30 -36 29 -39 -1 -4 5 -21 15 -38 17 -33 14 -44 -14 -44
-17 0 -29 -27 -29 -67 0 -13 -3 -23 -6 -23 -10 0 -43 44 -44 58 0 24 -34 8
-45 -21 -7 -22 -6 -35 8 -59 23 -40 22 -45 -14 -64 -30 -15 -31 -15 -25 1 28
74 19 107 -36 131 -24 10 -46 20 -50 22 -12 6 -9 -46 3 -66 7 -10 26 -68 43
-128 24 -84 35 -108 47 -106 26 4 41 -22 29 -52 -5 -14 -12 -26 -16 -26 -11 0
-43 45 -44 62 0 9 -20 76 -44 150 -24 73 -47 152 -51 175 -7 47 -21 63 -29 36
-6 -24 -21 -211 -19 -243 0 -14 -3 -63 -9 -110 -5 -47 -11 -120 -13 -164 -3
-43 -6 -81 -9 -84 -22 -21 -65 48 -126 204 -23 59 -46 114 -51 123 -5 9 -15
33 -22 54 -7 21 -17 38 -22 38 -6 0 -13 -31 -17 -68 -4 -37 -14 -108 -23 -158
-9 -49 -20 -114 -25 -144 -5 -30 -11 -55 -12 -55 -2 -1 -31 0 -65 2 l-62 4
-19 56 c-42 121 -90 237 -99 235 -9 -3 -31 -162 -32 -239 l-1 -51 -128 -2
c-98 -2 -139 2 -173 14 -24 9 -52 19 -61 22 -9 3 -29 -4 -44 -16 -40 -32 -132
-30 -168 4 -14 13 -26 20 -26 15 0 -5 4 -11 10 -15 5 -3 7 -12 3 -20 -4 -13
-45 -15 -252 -17 l-246 -1 190 -8 c105 -5 271 -8 370 -8 99 1 206 1 238 1 61
0 87 -13 87 -43 0 -17 -9 -19 -97 -19 -67 0 -93 -3 -83 -10 8 -5 40 -10 70
-10 30 -1 73 -4 95 -8 38 -7 42 -10 81 -92 23 -47 51 -94 63 -104 21 -19 21
-19 22 0 1 10 0 29 0 41 -1 11 3 24 8 28 7 4 9 28 6 63 -3 32 -2 49 3 39 7
-17 9 -17 27 3 17 19 26 21 100 15 44 -3 100 -8 124 -11 42 -5 43 -6 37 -36
-3 -17 -14 -37 -24 -44 -15 -12 -14 -13 14 -14 37 0 56 -19 54 -52 -4 -40 0
-48 20 -48 16 0 20 -7 20 -35 0 -26 -4 -35 -16 -35 -24 0 -12 -49 31 -132 19
-37 35 -72 35 -77 0 -12 -80 -31 -135 -31 -60 0 -82 -12 -100 -57 -8 -19 -15
-37 -15 -39 0 -12 86 -1 122 15 66 29 152 61 164 61 7 0 17 -7 25 -16 41 -49
293 -143 277 -103 -15 35 -19 53 -11 43 4 -6 24 -14 43 -18 45 -8 100 -41 100
-61 0 -15 -9 -16 -220 -19 -25 -1 -56 -7 -69 -15 -19 -10 -32 -11 -67 -1 -42
12 -130 9 -168 -6 -21 -8 -21 -67 1 -85 28 -24 131 -18 176 10 37 23 39 23 75
7 31 -14 46 -15 82 -7 25 6 79 11 120 11 l75 0 0 -67 c0 -67 0 -68 30 -73 20
-3 34 -14 43 -33 16 -33 9 -46 -13 -27 -23 19 -27 7 -10 -33 8 -19 14 -58 14
-86 -2 -49 -3 -51 -30 -51 -16 0 -29 6 -30 13 0 6 -5 2 -11 -10 -11 -23 -28
-31 -28 -13 0 5 -16 12 -35 16 l-34 6 21 28 c20 27 18 50 -4 50 -12 0 -68 -58
-68 -70 0 -16 -23 -23 -84 -29 l-61 -6 38 -22 c22 -14 37 -30 37 -41 0 -25 39
-33 87 -20 39 11 48 6 39 -17 -4 -13 -10 -14 -26 -5 -18 9 -29 6 -68 -19 -62
-39 -108 -47 -157 -27 -56 24 -101 21 -131 -10 -28 -27 -27 -56 2 -102 21 -33
41 -37 80 -18 19 9 51 16 71 16 24 0 48 9 71 26 32 25 37 26 72 14 21 -7 45
-10 53 -7 11 4 19 -4 26 -25 14 -39 15 -70 2 -49 -17 27 -22 -27 -11 -127 13
-122 32 -198 48 -195 9 2 12 -21 12 -81 0 -80 -1 -85 -35 -127 -40 -50 -44
-80 -15 -109 24 -24 29 -24 54 -5 16 12 21 12 40 0 11 -8 28 -15 37 -15 9 0
24 -9 34 -20 10 -11 22 -20 27 -20 5 0 25 -8 46 -17 20 -9 62 -17 93 -18 40
-1 68 -9 103 -28 56 -31 81 -34 90 -11 6 16 -2 30 -36 66 -22 22 -14 44 23 64
30 15 61 66 73 119 4 17 19 61 33 100 l26 69 15 -32 c14 -28 14 -35 -3 -71
-31 -69 -18 -148 33 -194 18 -16 20 -16 33 -1 13 16 14 14 19 -12 3 -17 12
-29 20 -29 8 0 14 -8 12 -17 -1 -9 7 -22 18 -28 11 -6 20 -21 20 -35 0 -13 14
-39 30 -57 17 -18 29 -37 27 -42 -2 -6 -25 -10 -52 -10 -47 0 -50 1 -55 29
-14 68 -55 96 -88 63 -19 -19 -15 -96 8 -128 20 -28 20 -28 0 -33 -15 -4 -20
-14 -20 -41 0 -35 -1 -35 -37 -33 l-38 2 -6 -55 c-8 -56 1 -80 27 -80 8 0 16
11 20 25 6 22 8 24 18 10 19 -26 68 -3 64 29 -1 13 6 33 16 45 16 18 18 26 9
56 -8 24 -8 35 -1 35 15 0 37 -32 38 -54 0 -11 11 -39 25 -62 33 -56 26 -94
-16 -94 -16 0 -29 -4 -29 -9 0 -14 104 -116 152 -149 63 -43 144 -82 170 -82
33 0 44 10 61 52 l16 38 -35 0 c-57 0 -104 34 -150 108 -1 2 -12 -6 -23 -17
-25 -25 -44 -27 -65 -5 -18 17 -22 54 -6 54 6 0 10 -7 10 -15 0 -8 9 -19 20
-25 28 -15 47 21 23 45 -15 16 -15 17 8 13 22 -3 24 0 20 32 -7 64 -6 90 4 89
6 0 9 -16 8 -34 -2 -27 3 -38 22 -51 28 -18 42 -12 56 23 6 18 15 24 31 21 18
-2 24 -12 29 -41 7 -43 17 -57 28 -38 5 8 10 -1 14 -26 l7 -39 49 -1 c40 -1
50 3 54 18 5 18 -16 115 -26 126 -3 2 -10 -12 -17 -32 -10 -31 -14 -35 -26
-23 -11 11 -10 23 12 77 17 41 22 66 15 70 -6 4 -7 12 -1 21 5 8 10 12 12 10
21 -33 25 -48 16 -64 -17 -30 -3 -41 86 -60 l86 -19 0 -38 c0 -20 -4 -39 -10
-41 -5 -2 1 -36 15 -81 14 -43 25 -86 25 -97 0 -28 19 -34 41 -14 31 28 18 94
-18 94 -12 0 -9 6 11 25 27 25 33 44 16 61 -15 15 43 88 85 108 43 21 47 52 9
67 -26 9 -26 10 -9 29 15 17 16 24 6 46 -14 32 -9 39 18 24 27 -14 41 -5 41
25 0 13 4 27 10 30 27 17 -6 75 -43 75 -8 0 -25 -13 -37 -30 -28 -39 -53 -40
-44 -2 14 65 7 61 115 59 97 -1 100 -2 106 -26 3 -13 1 -38 -6 -56 -6 -17 -11
-40 -12 -51 0 -16 -2 -16 -10 4 -14 35 -34 21 -34 -24 0 -28 4 -39 15 -39 8 0
20 -11 26 -25 13 -30 16 -210 3 -210 -15 0 -10 -26 7 -40 13 -11 19 -9 41 13
24 23 25 29 14 53 -10 24 -9 31 14 64 71 102 129 133 200 105 49 -18 78 -64
90 -145 8 -48 30 -100 43 -100 5 0 27 9 50 20 33 16 42 26 42 46 0 22 3 24 14
15 11 -9 18 -6 35 18 14 19 27 28 39 24 10 -2 24 2 30 10 9 10 24 12 59 7 27
-4 79 -3 118 2 68 9 70 9 92 -17 30 -35 47 -23 39 26 -4 24 -2 39 4 39 5 0 10
-9 10 -20 0 -28 14 -25 28 5 6 14 16 25 22 25 5 0 7 13 3 32 -4 22 -3 29 5 24
7 -4 12 -16 12 -27 0 -10 5 -19 11 -19 6 0 9 12 8 28 -3 25 17 92 28 92 13 0
41 -22 47 -35 10 -27 -12 -57 -36 -49 -18 5 -20 3 -14 -17 4 -13 10 -34 13
-47 7 -27 10 -27 64 1 39 21 45 29 53 71 8 45 23 65 86 114 23 18 24 22 9 39
-24 28 -40 71 -29 78 17 11 11 37 -10 42 -24 6 -25 16 -5 33 21 18 1 50 -31
50 -40 0 -121 38 -213 99 l-83 56 -78 0 c-71 0 -82 -3 -122 -30 -24 -17 -57
-37 -75 -44 -32 -13 -33 -12 -86 42 -53 55 -99 77 -158 77 -36 0 -141 -33
-242 -76 -109 -47 -88 -29 48 41 105 53 114 56 186 56 76 1 82 -1 161 -47 10
-6 29 -21 42 -33 l24 -22 6 25 c5 20 13 26 35 26 22 0 96 23 108 34 2 1 -13
40 -31 87 -40 98 -52 139 -39 139 9 0 54 -109 72 -175 l10 -40 56 0 c30 0 55
1 55 3 0 2 -18 34 -40 71 -41 68 -48 95 -30 106 6 4 8 10 5 15 -3 5 36 8 87 7
85 -2 98 0 151 28 l58 29 -7 42 c-5 37 -3 43 15 49 12 3 18 12 15 20 -3 8 1
29 10 46 20 40 21 99 1 125 -13 17 -14 15 -15 -33 0 -95 -15 -108 -123 -112
-26 -1 -86 -15 -132 -31 -78 -28 -115 -36 -115 -26 0 3 10 16 23 30 13 14 36
62 51 108 30 87 73 161 106 178 10 5 39 7 64 4 43 -6 46 -5 46 17 0 13 -15 39
-33 59 -26 27 -44 67 -81 181 -46 140 -48 149 -49 273 -2 95 1 130 11 133 6 3
12 11 12 18 0 12 5 11 26 0 27 -14 54 -10 54 7 0 6 -18 28 -40 49 -22 22 -40
43 -40 48 0 16 44 25 48 11 3 -7 13 -21 24 -32 17 -17 22 -18 36 -5 9 8 25 17
35 20 22 8 35 39 19 45 -7 2 -12 8 -12 14 0 6 11 3 25 -6 24 -16 26 -16 48 8
l23 25 85 -24 c126 -37 172 -55 189 -77 15 -18 32 -19 230 -21 118 -1 242 2
276 6 l60 9 -4 -36 c-2 -20 2 -51 9 -68 7 -18 12 -44 11 -59 -6 -52 57 -45 76
9 11 31 61 58 88 48 15 -6 15 -8 -1 -26 -24 -27 -14 -44 35 -60 64 -21 90 -59
90 -130 0 -34 -8 -82 -19 -112 -30 -81 -52 -173 -49 -208 3 -25 -3 -34 -29
-51 l-33 -21 -10 29 c-6 15 -13 34 -15 41 -2 6 -11 12 -18 12 -10 0 -16 -19
-19 -65 -6 -72 -15 -86 -70 -121 -49 -31 -48 -54 3 -104 44 -42 45 -51 3 -24
-27 19 -43 12 -25 -10 9 -11 9 -15 -1 -18 -6 -2 7 -12 30 -21 23 -9 42 -24 42
-32 0 -9 9 -15 25 -15 34 0 75 -28 75 -51 0 -16 5 -18 25 -13 35 9 33 -9 -16
-116 -22 -50 -49 -115 -59 -145 -20 -57 -78 -125 -109 -125 -14 -1 -14 -2 1
-11 16 -9 17 -13 3 -39 -16 -32 -20 -60 -7 -60 5 0 21 13 36 29 16 17 35 27
43 24 11 -4 10 -10 -8 -29 -22 -23 -18 -49 7 -40 29 11 1 -22 -34 -40 -20 -10
-40 -20 -43 -22 -4 -1 -9 7 -12 19 -5 18 -11 20 -33 15 -15 -4 -34 -16 -43
-28 -13 -15 -23 -19 -40 -13 -21 6 -23 11 -18 54 3 25 12 64 19 86 11 32 18
40 38 41 53 2 55 3 34 18 -14 11 -21 11 -26 3 -5 -9 -10 -9 -20 1 -10 10 -8
21 9 55 20 37 81 166 91 192 3 6 -14 -8 -37 -30 -22 -21 -41 -46 -42 -55 -1
-31 -45 -154 -57 -158 -6 -2 -12 3 -12 12 0 9 -4 16 -10 16 -5 0 -10 -7 -10
-15 0 -8 -7 -15 -15 -15 -8 0 -15 -5 -15 -11 0 -5 5 -7 10 -4 6 4 18 1 26 -6
12 -10 14 -26 8 -83 -7 -76 -18 -106 -37 -106 -26 0 -42 21 -42 52 0 28 -4 34
-25 36 -14 2 -29 8 -34 13 -6 5 -35 9 -65 9 -34 0 -73 8 -100 20 -59 27 -89
26 -96 -3 -8 -31 10 -74 34 -82 25 -8 33 -32 36 -107 3 -68 23 -98 66 -98 18
0 32 -7 39 -20 6 -11 38 -39 72 -62 35 -23 77 -56 94 -74 41 -41 172 -95 246
-102 32 -2 58 -9 58 -15 0 -6 -16 -7 -40 -3 -123 19 -114 20 -133 -14 -20 -37
-14 -55 14 -40 14 8 19 7 20 -2 0 -7 4 -3 9 10 12 28 30 28 66 0 44 -34 53
-50 54 -91 0 -41 14 -77 30 -77 18 0 10 68 -11 105 -14 24 -18 40 -12 46 7 7
14 0 23 -20 15 -36 10 -35 46 -16 16 8 39 12 51 9 36 -9 29 20 -14 55 -21 17
-31 31 -24 31 8 0 42 -29 76 -65 56 -59 66 -65 102 -65 41 0 61 15 95 70 8 14
33 31 54 39 21 7 53 22 71 33 41 25 83 111 83 171 0 41 3 47 35 66 45 26 75
76 75 124 0 43 12 47 43 12 20 -23 24 -24 41 -12 18 13 18 16 3 77 -9 34 -14
67 -11 72 5 8 57 -35 236 -197 176 -159 199 -176 227 -173 30 3 39 36 22 80
-13 35 -386 321 -443 340 -6 2 0 25 16 56 14 28 30 69 34 89 7 33 12 38 33 35
55 -5 75 -5 89 1 10 5 18 0 25 -15 23 -53 112 -23 101 33 -5 28 7 39 44 39 19
0 40 45 40 86 0 15 -27 53 -75 106 -63 70 -72 84 -57 89 22 9 81 74 91 103 5
11 11 57 15 101 5 50 14 92 26 112 l19 33 -23 0 c-21 0 -65 35 -55 44 2 2 40
-7 83 -20 44 -13 97 -24 117 -24 21 0 48 -4 62 -9 29 -11 50 0 41 22 -8 21
-37 30 -75 22 -20 -5 -38 -2 -54 9 -16 11 -53 18 -100 20 -114 5 -131 30 -104
156 l11 52 82 -7 c58 -5 94 -14 126 -32 53 -29 123 -39 163 -24 25 10 28 15
25 48 -3 34 -8 40 -51 62 -35 17 -63 23 -113 23 -46 0 -75 5 -97 18 -18 10
-70 26 -117 35 -157 31 -240 57 -240 75 0 20 45 43 70 35 21 -7 50 19 50 44 0
10 -15 24 -34 34 l-35 16 6 58 c4 42 12 65 29 84 14 14 24 37 24 54 0 37 -22
135 -31 135 -3 0 -14 -37 -24 -82 -24 -112 -75 -256 -135 -383 -47 -98 -70
-127 -70 -89 0 18 23 206 45 369 8 61 19 153 25 205 5 52 17 142 26 200 24
166 28 224 15 216 -6 -4 -11 -17 -12 -29 -1 -34 -44 -160 -56 -164 -10 -4 -5
20 28 125 6 18 12 44 15 58 2 14 11 44 18 67 8 23 17 57 21 75 4 18 17 40 31
48 13 9 24 24 24 33 0 9 20 57 45 106 25 50 45 98 45 108 0 9 -11 23 -25 29
-22 10 -29 8 -50 -12 -13 -12 -37 -54 -52 -92 -14 -38 -38 -79 -52 -91 -22
-19 -26 -31 -27 -77 -1 -76 -39 -189 -69 -200 -12 -5 -25 -16 -28 -24 -4 -9
-15 -16 -25 -16 -10 0 -23 -5 -30 -12 -18 -18 -15 -1 7 41 40 74 82 183 77
198 -3 8 17 60 46 116 58 113 64 154 29 211 -12 18 -21 37 -21 42 0 9 63 76
94 102 23 19 21 35 -3 22 -31 -16 -31 -13 0 47 16 31 29 61 29 66 0 5 -16 29
-36 53 -41 49 -70 56 -99 23 l-19 -20 -32 38 c-31 37 -31 37 -58 20 -19 -13
-26 -26 -26 -50 0 -17 -5 -39 -10 -47 -8 -12 -14 -10 -38 13 -15 15 -33 27
-40 27 -19 0 -14 32 10 57 l21 23 -20 72 c-12 42 -19 87 -16 106 3 20 1 32 -6
32 -6 0 -11 11 -11 25 0 35 -35 67 -68 63 -25 -3 -27 -7 -33 -63 -3 -33 -6
-51 -7 -39 -1 11 -13 30 -27 42 -19 16 -25 32 -25 61 0 30 6 44 25 59 34 27
31 34 -12 30 l-38 -3 -9 -62 c-5 -35 -5 -86 0 -120 8 -54 11 -58 39 -64 17 -4
22 -7 12 -8 -27 -2 -19 -53 11 -66 12 -6 20 -16 17 -23 -3 -8 -5 -20 -5 -27 0
-8 -7 -11 -17 -9 -15 4 -18 -3 -20 -51 -3 -63 13 -80 47 -50 24 22 30 18 23
-16 -4 -23 -11 -27 -54 -33 -27 -4 -53 -4 -58 -2 -5 3 -15 26 -22 51 -7 25
-19 45 -26 45 -7 0 -13 5 -13 10 0 6 -6 10 -13 10 -7 0 -19 6 -25 12 -10 10
-8 16 9 29 19 14 20 17 5 31 -9 9 -21 18 -28 21 -10 4 -10 7 -1 18 11 10 17 9
36 -9 30 -29 40 -28 35 3 -6 26 14 51 32 40 5 -3 10 -2 10 4 0 15 -42 41 -67
41 -21 0 -21 1 -7 35 23 55 18 74 -20 90 -19 8 -38 20 -42 26 -4 8 -9 7 -15
-2 -5 -9 -9 14 -9 58 0 70 -16 107 -27 64 -6 -22 -19 -26 -42 -12 -12 8 -11
15 3 50 28 72 3 221 -38 221 -16 0 -76 -74 -76 -94 0 -8 5 -18 11 -22 6 -3 8
-17 5 -30 -4 -14 0 -37 9 -54 10 -19 11 -31 4 -35 -16 -11 -68 15 -71 35 -3
17 -6 17 -48 3 l-44 -15 -28 33 c-15 18 -26 41 -25 53 2 16 -5 21 -35 26 -21
4 -47 15 -59 26 -11 10 -26 19 -32 20 -7 0 -22 2 -35 2 -15 1 -22 7 -20 18 2
10 -3 19 -11 22 -10 3 -12 0 -8 -12 4 -9 1 -16 -4 -16 -6 0 -9 -8 -6 -19 3
-12 -1 -18 -11 -17 -9 0 -21 -9 -27 -21 l-12 -23 -36 34 c-20 19 -37 39 -37
45 0 7 12 23 26 38 33 33 24 40 -31 25 -60 -16 -62 -16 -68 9 -9 33 -32 17
-29 -20 1 -17 -2 -31 -8 -31 -5 0 -32 -13 -60 -30 -28 -16 -57 -30 -66 -30 -8
0 -23 -6 -34 -12 -24 -15 -70 8 -112 56 -32 36 -36 22 -13 -45 10 -28 12 -45
5 -47 -5 -2 -10 -14 -10 -27 0 -13 -4 -26 -9 -29 -5 -3 -12 -18 -16 -33 -5
-23 0 -33 40 -70 26 -24 53 -43 60 -43 14 0 45 -32 45 -47 0 -6 -7 -16 -15
-23 -26 -22 -18 -40 15 -33 18 3 30 1 30 -5 0 -7 12 -6 35 4 77 32 123 17 213
-72 59 -59 70 -65 97 -60 16 4 46 23 67 43 30 29 45 36 86 39 47 4 52 2 86
-36 19 -22 38 -52 41 -67 17 -79 33 -119 53 -128 12 -5 22 -12 22 -15 0 -16
-29 -39 -56 -45 -40 -8 -59 10 -68 64 -7 44 -25 56 -28 19 -3 -50 5 -74 33
-103 23 -24 26 -34 17 -43 -20 -20 -37 -14 -81 32 -47 49 -102 74 -111 50 -9
-23 5 -44 30 -44 13 0 28 -9 34 -19 14 -26 13 -31 -5 -25 -8 4 -15 1 -15 -4 0
-12 101 -52 130 -52 49 0 312 -77 425 -125 65 -27 143 -83 172 -123 14 -20 40
-54 56 -76 16 -21 40 -66 52 -100 12 -33 30 -79 39 -101 16 -37 11 -33 -71 50
-111 114 -177 170 -255 217 -33 21 -68 44 -77 52 -9 8 -40 24 -69 35 -29 12
-63 27 -75 35 -34 21 -202 53 -292 55 -109 3 -297 -24 -397 -55 -151 -48 -343
-157 -441 -253 -116 -111 -215 -271 -240 -386 -43 -197 -53 -537 -32 -1105 20
-542 21 -535 -53 -568 -86 -39 -145 -25 -192 46 -36 55 -38 88 -10 245 23 134
46 354 55 527 5 98 2 159 -14 275 -11 83 -23 184 -26 225 -16 178 -67 350
-152 505 -124 228 -321 384 -595 474 -186 61 -222 66 -433 66 -166 0 -196 -3
-233 -19 -23 -10 -42 -23 -42 -27 0 -4 -15 -5 -34 -2 -36 6 -59 -13 -35 -28
16 -9 17 -8 -41 -44 -57 -36 -135 -113 -189 -187 -23 -32 -44 -58 -46 -58 -2
0 3 19 11 43 23 65 92 173 134 209 75 65 166 127 195 133 17 3 50 15 75 25 25
10 60 24 78 30 18 7 38 22 44 33 9 17 7 24 -12 39 -29 23 -39 23 -122 -7 -84
-30 -120 -49 -137 -69 -33 -39 -131 6 -131 60 0 20 33 104 65 167 8 16 15 34
15 40 1 18 76 67 87 56 4 -4 18 -6 31 -2 l22 5 -25 44 c-25 43 -32 97 -15 124
8 13 16 12 65 -4 63 -22 61 -41 -6 -39 -26 1 -42 -3 -45 -12 -6 -15 25 -75 38
-75 4 0 10 -16 14 -35 4 -25 11 -35 25 -35 12 0 19 -7 19 -20 0 -21 26 -28 32
-8 2 6 1 31 -2 55 -5 28 -3 46 4 51 6 4 18 21 26 37 23 47 56 73 102 80 38 5
55 18 133 98 168 171 278 257 344 272 17 4 31 11 31 16 0 5 -16 25 -35 45 -33
32 -39 35 -88 32 l-52 -3 -5 -44 -5 -43 -34 46 c-23 30 -38 43 -45 36 -6 -6
-4 -16 6 -27 9 -10 23 -33 33 -52 16 -32 16 -35 -3 -60 -15 -20 -27 -25 -51
-23 -20 1 -34 -3 -37 -12 -7 -19 -59 -4 -91 26 -20 19 -27 20 -43 10 -17 -11
-20 -9 -26 16 -12 58 -22 71 -61 77 -21 3 -50 13 -65 21 -36 19 -61 18 -92 -7
-24 -19 -27 -27 -25 -72 4 -67 -16 -74 -32 -12 -8 31 -16 44 -25 41 -9 -4 -11
4 -7 28 5 31 3 34 -20 34 -19 0 -27 -6 -29 -22 -2 -15 -9 -20 -23 -18 -11 2
-22 9 -24 15 -7 18 -49 57 -63 57 -7 0 -27 -9 -45 -19z m532 -272 c0 -7 -8
-15 -17 -17 -18 -3 -25 18 -11 32 10 10 28 1 28 -15z m-205 -284 c0 -16 -27
-32 -37 -21 -7 7 16 36 28 36 5 0 9 -7 9 -15z m-334 -272 c-10 -10 -19 5 -10
18 6 11 8 11 12 0 2 -7 1 -15 -2 -18z m3921 -25 c27 -32 65 -107 58 -119 -11
-17 -43 -9 -63 16 -11 14 -29 25 -41 25 -23 0 -26 -11 -11 -39 8 -15 1 -26
-40 -60 -27 -22 -51 -41 -54 -41 -3 0 -20 13 -39 29 -28 25 -33 35 -29 64 4
39 46 85 109 123 50 29 84 30 110 2z m-273 -34 c18 -17 22 -79 6 -89 -15 -9
-110 36 -110 52 0 8 5 23 10 34 13 24 72 26 94 3z m-2847 -362 c175 -62 376
-176 346 -195 -6 -4 -26 2 -47 12 -44 23 -53 13 -29 -31 10 -18 18 -40 18 -48
0 -8 10 -16 23 -18 15 -2 39 -27 72 -77 28 -41 50 -79 50 -84 0 -19 -41 -80
-66 -95 -18 -12 -24 -25 -24 -51 0 -31 -3 -35 -25 -35 -14 0 -44 -9 -66 -21
-34 -17 -46 -18 -71 -10 -43 15 -48 14 -48 -9 0 -44 56 -75 185 -105 l30 -7
-25 -11 c-36 -14 -509 -21 -600 -8 -120 17 -187 30 -212 41 -20 9 -18 10 12 5
123 -19 176 -18 220 5 55 28 82 31 152 18 48 -10 60 -9 82 5 36 24 33 37 -10
37 -19 0 -55 9 -79 20 -28 13 -77 23 -135 27 -50 3 -93 10 -96 15 -3 5 2 18
11 28 9 10 15 27 13 37 -3 15 -14 18 -71 19 -37 1 -70 4 -73 7 -3 3 0 14 7 25
20 32 5 52 -40 52 -22 0 -42 4 -45 9 -3 5 5 24 19 42 13 19 29 43 34 54 5 11
33 35 62 54 30 19 67 47 82 64 20 21 35 28 52 25 21 -4 25 1 41 51 25 83 35
101 54 101 10 0 21 -10 25 -22 6 -19 8 -20 12 -6 2 10 -2 30 -9 45 -15 31 -45
40 -168 52 -65 6 -70 8 -40 14 134 26 238 18 377 -31z m2183 -14 c0 -5 -7 -38
-16 -74 -15 -60 -15 -67 -1 -81 14 -15 21 -14 75 5 75 28 109 28 117 2 9 -27
85 -86 94 -72 4 7 28 8 76 2 39 -5 73 -9 77 -10 23 -1 39 -36 37 -84 -1 -28 1
-65 5 -82 6 -28 4 -32 -39 -53 -61 -31 -60 -53 7 -84 l51 -25 3 -57 c2 -39 -1
-61 -10 -71 -8 -7 -16 -18 -18 -23 -4 -12 -174 -41 -243 -41 -27 0 -68 -5 -90
-10 -72 -18 -317 -40 -448 -40 -102 0 -142 4 -202 22 -64 19 -75 25 -75 44 0
16 -7 24 -22 27 -22 3 -22 4 5 15 42 18 91 16 83 -3 -9 -26 24 -17 62 16 24
21 42 29 58 26 14 -2 25 2 28 10 9 23 -19 26 -81 8 -97 -27 -113 -29 -113 -12
0 20 -22 27 -64 20 -20 -3 -36 -2 -36 3 0 5 -3 18 -6 30 -4 14 5 32 30 60 41
45 43 57 16 91 -20 25 -20 27 -2 57 10 17 29 37 43 43 13 7 18 13 11 13 -34 0
113 161 176 194 26 13 79 40 117 61 39 21 102 48 140 61 69 23 155 29 155 12z
m-2436 -63 c3 -8 1 -15 -4 -15 -6 0 -10 -6 -10 -12 0 -29 -17 -41 -39 -29 -38
21 -20 71 25 71 12 0 24 -7 28 -15z m-907 -265 c30 -62 29 -78 -2 -72 -15 3
-25 11 -25 22 0 16 -20 32 -44 34 -5 1 -12 10 -17 21 -15 40 -11 46 28 43 34
-3 40 -8 60 -48z m89 -205 c49 -106 52 -121 26 -127 -42 -11 -55 -244 -23
-399 11 -52 33 -157 49 -234 17 -77 35 -189 42 -250 19 -175 45 -385 72 -582
8 -62 8 -86 -1 -96 -9 -11 -8 -17 2 -26 9 -6 17 -43 21 -89 19 -226 19 -227 2
-245 -44 -44 -66 -5 -66 118 0 127 -20 379 -33 427 -7 23 -18 43 -25 46 -24 8
-34 -52 -32 -188 2 -132 4 -178 16 -367 5 -68 3 -93 -5 -93 -21 0 -67 59 -104
133 -63 126 -92 282 -85 449 8 163 26 199 115 222 l48 13 -3 74 c-7 199 -46
505 -74 584 -5 17 -14 54 -19 84 -5 29 -14 62 -19 72 -18 33 -11 165 12 247
28 98 27 142 -6 219 -14 34 -26 66 -26 71 0 7 42 28 63 31 5 1 28 -42 53 -94z
m3852 70 c-2 -5 -15 -9 -30 -9 -17 1 -28 -4 -28 -12 0 -22 -47 -47 -74 -40
-36 9 -42 36 -8 36 15 1 43 10 62 20 35 20 83 23 78 5z m-4616 -45 c9 -17 13
-30 8 -30 -10 0 -40 40 -40 52 0 17 16 6 32 -22z m-222 13 c0 -5 -5 -15 -10
-23 -8 -12 -10 -11 -10 8 0 12 5 22 10 22 6 0 10 -3 10 -7z m5201 -50 c-12
-20 -14 -14 -5 12 4 9 9 14 11 11 3 -2 0 -13 -6 -23z m76 -29 c-9 -43 -7 -64
7 -118 10 -36 22 -66 27 -66 5 0 16 26 26 58 12 39 18 50 21 35 2 -12 -6 -52
-17 -88 -12 -37 -21 -85 -21 -108 0 -47 -45 -248 -66 -292 -13 -28 -14 -24
-14 68 0 54 5 107 11 119 8 15 6 30 -9 67 -21 46 -21 47 -1 171 10 69 19 139
19 156 0 24 18 60 26 51 1 -1 -3 -25 -9 -53z m113 -18 c0 -2 -3 -11 -6 -20 -9
-24 -33 -20 -27 4 4 16 33 30 33 16z m-670 -231 c0 -6 -86 -44 -163 -71 -90
-31 -204 -46 -362 -46 -137 -1 -313 18 -330 35 -7 6 0 7 20 3 17 -4 100 -9
185 -13 214 -8 360 8 514 57 127 40 136 43 136 35z m-3042 -34 c53 -21 221
-40 362 -42 71 -1 80 -2 55 -11 -16 -5 -77 -10 -135 -10 -87 -1 -125 5 -220
30 -63 17 -126 35 -140 41 l-25 10 27 0 c15 1 49 -8 76 -18z m585 -170 c-3
-11 -29 -37 -59 -57 -39 -27 -54 -44 -54 -61 0 -17 6 -23 23 -23 56 0 191 45
306 101 118 58 124 59 142 43 11 -9 24 -36 30 -58 7 -23 18 -61 26 -85 9 -29
12 -63 8 -95 -8 -62 7 -106 35 -106 11 0 20 -1 20 -2 0 -2 -10 -33 -23 -69
-16 -45 -57 -113 -129 -215 -152 -215 -149 -208 -138 -340 12 -140 30 -199 59
-199 13 0 34 -16 55 -42 28 -36 34 -51 34 -95 0 -30 -8 -71 -18 -95 -21 -49
-140 -169 -187 -189 -18 -8 -87 -17 -153 -21 -66 -3 -120 -10 -120 -14 0 -9
55 -49 68 -49 5 0 15 -7 22 -15 10 -12 9 -15 -6 -15 -11 0 -40 -7 -66 -17 -36
-13 -53 -14 -71 -6 -30 14 -56 69 -63 131 -5 40 0 58 30 120 36 73 44 102 28
102 -5 0 -35 -48 -69 -107 -33 -59 -65 -109 -71 -111 -16 -5 -31 38 -22 58 5
8 19 42 33 75 22 54 23 67 15 125 -5 36 -11 76 -12 90 -1 14 -7 35 -14 47 -7
12 -12 39 -12 61 0 32 -5 41 -25 50 -14 7 -34 25 -43 42 -20 36 -32 34 -52 -6
l-15 -30 -32 68 c-18 38 -33 73 -33 78 0 6 -5 10 -10 10 -12 0 -10 -69 2 -76
11 -7 10 -54 -1 -54 -5 0 -11 8 -14 19 -3 14 -11 17 -30 14 -23 -5 -26 -10
-29 -57 -4 -74 -26 -67 -54 17 -12 37 -33 81 -45 98 -32 45 -94 269 -75 269
24 0 37 -20 47 -71 6 -32 15 -59 18 -59 12 0 31 113 30 175 -1 35 -9 74 -19
95 -10 19 -21 55 -25 80 -4 25 -13 61 -21 82 -10 30 -10 39 1 48 10 8 32 -9
99 -76 85 -86 111 -98 111 -53 0 24 21 34 125 56 35 8 60 32 60 58 0 12 -8 29
-17 37 -18 16 -185 102 -282 146 -36 17 -53 31 -57 48 -9 35 1 40 42 21 19
-10 53 -21 76 -26 35 -8 47 -6 79 12 37 21 39 21 69 4 33 -20 70 -15 70 9 0 8
-5 14 -12 14 -12 0 -48 29 -48 40 0 3 55 6 123 7 108 0 133 4 217 31 116 37
130 38 123 13z m2397 5 c0 -23 -13 -26 -61 -17 -42 8 -43 9 -19 19 37 16 80
15 80 -2z m260 -240 c0 -13 -7 -40 -15 -60 -14 -33 -19 -37 -48 -34 -29 3 -33
7 -38 43 -4 22 -10 55 -14 73 -7 30 -6 32 19 32 22 0 28 6 33 31 l6 31 28 -46
c16 -25 29 -57 29 -70z m294 -85 c8 -12 -3 -41 -15 -41 -5 0 -9 11 -9 25 0 25
14 34 24 16z m-9 -142 c-1 -30 -5 -109 -9 -175 -8 -114 -7 -123 10 -132 21
-11 25 -12 54 -12 51 0 89 -76 90 -180 1 -170 0 -215 -10 -273 -15 -83 -23
-96 -50 -79 -19 12 -20 10 -20 -66 0 -72 -2 -81 -36 -132 -35 -54 -51 -70 -67
-70 -5 0 -5 82 -1 183 11 264 11 261 -6 264 -30 6 -61 -106 -71 -255 -5 -75
-13 -140 -18 -145 -16 -16 -49 3 -59 33 -11 30 -4 138 24 350 8 63 24 187 35
275 12 88 30 185 41 215 11 30 28 96 37 146 10 50 21 96 25 103 17 26 31 3 31
-50z m-429 -245 c-3 -9 -6 -18 -6 -20 0 -2 -12 -4 -27 -4 l-28 0 25 20 c30 24
44 25 36 4z m-2011 -122 c4 -26 15 -66 26 -89 20 -45 25 -108 10 -132 -7 -11
-27 -12 -97 -7 -113 9 -124 13 -124 39 0 50 145 258 169 243 5 -4 13 -28 16
-54z m2061 -4 c-3 -13 -7 -39 -11 -59 -6 -41 -58 -205 -67 -215 -4 -3 -22 6
-41 20 -19 14 -39 26 -46 26 -7 0 -11 3 -9 8 31 70 74 149 84 155 8 4 14 15
14 23 0 20 45 64 65 64 11 0 14 -7 11 -22z m-4008 -328 l0 -25 -8 25 c-4 14
-8 34 -8 45 l-1 20 9 -20 c5 -11 8 -31 8 -45z m2015 -12 c2 -7 -3 -28 -11 -46
-13 -25 -13 -35 -3 -45 9 -9 14 -9 20 2 5 7 14 10 21 6 12 -7 50 -88 50 -106
0 -24 -85 -49 -171 -49 -75 0 -88 3 -105 21 -19 21 -18 21 54 89 39 37 72 76
72 86 0 38 62 74 73 42z m177 -41 c0 -2 -9 -30 -20 -63 -11 -32 -20 -68 -20
-80 0 -11 -7 -29 -16 -40 -14 -18 -15 -16 -10 26 7 54 45 160 57 160 5 0 9 -2
9 -3z m120 -56 c5 -11 10 -42 10 -69 0 -57 -26 -100 -53 -89 -24 9 -24 138 -1
161 20 21 31 20 44 -3z m-181 -251 c22 -10 56 -35 76 -55 21 -19 47 -35 58
-35 21 0 100 34 126 54 23 18 84 36 125 36 24 0 57 -10 85 -26 60 -35 221
-155 221 -166 0 -5 -12 -8 -27 -7 -16 1 -35 -1 -44 -5 -9 -4 -21 0 -29 9 -7 8
-22 15 -34 15 -13 0 -41 16 -63 35 -55 47 -94 47 -186 -1 -95 -49 -156 -55
-224 -21 -27 14 -64 37 -81 51 -38 33 -56 33 -205 -5 -106 -28 -220 -39 -235
-24 -5 4 74 45 133 69 27 11 34 12 23 2 -32 -24 -7 -25 46 -2 28 13 75 31 104
40 29 10 58 27 65 37 15 24 19 24 66 -1z m-475 -148 c-5 -18 -13 -22 -50 -22
-45 0 -68 16 -37 26 10 3 32 11 48 19 35 15 47 8 39 -23z m194 -117 c29 -9 66
-28 81 -41 27 -22 42 -25 210 -36 172 -11 182 -10 202 8 15 14 22 15 28 6 6
-10 14 -10 32 -3 20 9 119 26 344 58 l40 6 -30 -33 c-16 -18 -54 -43 -84 -57
-31 -14 -55 -32 -58 -43 -3 -11 -14 -22 -24 -25 -11 -4 -26 -19 -34 -34 -8
-16 -21 -31 -29 -34 -29 -11 -440 -9 -469 2 -16 6 -43 11 -60 11 -32 0 -137
53 -137 69 0 4 -13 25 -30 46 -16 21 -30 47 -30 58 0 11 -12 30 -26 43 -28 26
-24 56 4 31 10 -8 41 -22 70 -32z m996 29 c9 -3 16 -12 16 -20 0 -12 -4 -12
-20 -2 -30 19 -27 34 4 22z m-1410 -279 c27 -62 30 -85 7 -71 -5 3 -17 30 -27
59 -9 28 -19 58 -22 65 -2 6 0 12 4 12 5 0 22 -30 38 -65z"/>
<path d="M3307 5033 c-4 -3 -7 -11 -7 -17 0 -6 5 -5 12 2 6 6 9 14 7 17 -3 3
-9 2 -12 -2z"/>
<path d="M3088 4923 c7 -3 16 -2 19 1 4 3 -2 6 -13 5 -11 0 -14 -3 -6 -6z"/>
<path d="M3170 4920 c0 -6 25 -10 55 -10 71 0 71 14 0 17 -31 1 -55 -2 -55 -7z"/>
<path d="M2800 4835 c7 -9 15 -13 17 -11 7 7 -7 26 -19 26 -6 0 -6 -6 2 -15z"/>
<path d="M5587 4730 c-3 -11 -1 -20 4 -20 5 0 9 9 9 20 0 11 -2 20 -4 20 -2 0
-6 -9 -9 -20z"/>
<path d="M3110 4070 c-11 -7 -8 -11 14 -20 34 -13 62 3 36 20 -19 12 -31 12
-50 0z"/>
<path d="M2960 3715 c0 -16 16 -20 24 -6 3 5 -1 11 -9 15 -9 3 -15 0 -15 -9z"/>
<path d="M2990 3682 c0 -14 11 -21 26 -15 21 8 17 23 -6 23 -11 0 -20 -4 -20
-8z"/>
<path d="M6214 3227 c-24 -10 -34 -45 -34 -116 1 -40 2 -44 14 -28 19 25 26
21 26 -13 0 -30 17 -41 25 -17 2 6 1 51 -3 98 -7 83 -8 86 -28 76z"/>
<path d="M3670 2525 c-24 -13 -24 -14 -4 -15 12 0 27 7 34 15 16 19 3 19 -30
0z"/>
<path d="M4111 6446 c-10 -12 -8 -13 9 -9 25 7 37 23 17 23 -8 0 -20 -6 -26
-14z"/>
<path d="M3660 6440 c0 -5 5 -10 10 -10 6 0 10 5 10 10 0 6 -4 10 -10 10 -5 0
-10 -4 -10 -10z"/>
<path d="M3591 6319 c-22 -58 -22 -62 -5 -80 29 -32 44 -7 44 72 0 38 -4 69
-9 69 -4 0 -18 -27 -30 -61z"/>
<path d="M3345 6318 c21 -51 19 -59 -9 -52 -36 9 -83 -18 -172 -98 -90 -81
-182 -158 -213 -181 l-22 -15 25 -38 c14 -22 30 -44 36 -51 5 -7 10 -26 10
-43 l0 -32 25 30 c28 33 102 72 138 72 12 0 46 18 76 40 29 22 58 40 65 40 6
0 29 23 51 50 22 27 50 52 63 56 46 13 44 36 -9 98 -35 41 -47 62 -40 69 16
16 13 29 -15 62 l-25 30 16 -37z"/>
<path d="M5899 6334 c-10 -13 -14 -49 -14 -138 0 -139 8 -179 33 -174 13 3 16
12 14 39 -2 23 2 40 12 49 12 9 16 33 16 99 0 113 -27 166 -61 125z"/>
<path d="M6404 6293 c-9 -34 6 -57 40 -61 33 -4 35 23 5 62 -26 33 -37 33 -45
-1z"/>
<path d="M2120 6282 c-28 -23 -30 -70 -4 -89 19 -14 60 -10 78 7 15 14 9 60
-9 80 -22 25 -37 25 -65 2z"/>
<path d="M6130 6271 c0 -11 -9 -22 -21 -26 -31 -10 -17 -30 22 -30 32 0 34 2
34 35 0 25 -5 36 -17 38 -12 2 -18 -3 -18 -17z"/>
<path d="M3443 6186 c18 -27 23 -30 25 -14 4 22 -14 48 -34 48 -9 0 -7 -10 9
-34z"/>
<path d="M1587 6193 c-22 -21 -2 -56 76 -134 93 -93 130 -119 170 -119 40 0
42 21 7 83 -52 92 -78 113 -191 156 -63 25 -54 22 -62 14z"/>
<path d="M872 6128 c6 -19 105 -70 126 -66 12 3 0 15 -40 41 -58 37 -93 47
-86 25z"/>
<path d="M6290 6084 c-12 -31 -13 -44 -2 -44 15 0 32 24 32 47 0 31 -18 29
-30 -3z"/>
<path d="M6357 6038 c-3 -13 -9 -53 -12 -90 -5 -44 -12 -68 -20 -68 -22 0 -38
-28 -31 -56 5 -20 12 -25 34 -22 22 2 28 9 30 33 2 17 8 34 13 40 12 12 12
185 0 185 -5 0 -11 -10 -14 -22z"/>
<path d="M2213 6009 c-37 -14 -45 -91 -12 -112 23 -14 67 -1 74 23 9 29 -4 79
-23 89 -9 5 -27 5 -39 0z"/>
<path d="M6423 5929 c-40 -15 -24 -73 18 -67 19 2 25 10 27 34 3 35 -11 46
-45 33z"/>
<path d="M4976 5902 c-55 -30 -71 -52 -32 -45 20 4 28 -2 46 -33 17 -32 20
-34 16 -12 -3 14 -9 33 -12 41 -3 10 3 20 15 27 12 6 21 7 21 3 0 -13 20 21
20 35 0 18 -20 14 -74 -16z"/>
<path d="M1882 5808 c2 -12 10 -23 18 -23 22 0 19 39 -3 43 -15 3 -18 -1 -15
-20z"/>
<path d="M6618 5759 c-27 -15 -22 -33 23 -73 71 -65 110 -24 43 45 -42 43 -42
43 -66 28z"/>
<path d="M3920 5706 c0 -23 27 -79 58 -122 61 -84 191 -142 241 -108 19 14 41
69 41 106 0 18 -106 138 -122 138 -6 0 8 -20 30 -44 54 -59 65 -81 57 -119
-10 -46 -23 -57 -67 -57 -46 0 -129 52 -166 104 -22 30 -22 31 -3 34 26 4 45
28 37 47 -8 22 -32 18 -50 -7 l-16 -22 -11 32 c-11 32 -29 44 -29 18z"/>
<path d="M7811 5631 c-23 -32 -27 -51 -11 -51 13 0 45 32 60 59 18 34 -24 27
-49 -8z"/>
<path d="M2790 5635 c-6 -8 -9 -23 -5 -35 5 -16 15 -20 51 -20 24 0 44 -4 44
-8 0 -5 7 -17 16 -28 14 -18 15 -17 11 14 -3 27 0 36 17 42 21 9 21 9 -1 9
-14 1 -23 7 -23 16 0 13 -3 13 -19 3 -16 -10 -23 -9 -39 5 -23 21 -36 21 -52
2z"/>
<path d="M4080 5611 c0 -5 5 -13 10 -16 6 -3 10 -2 10 4 0 5 -4 13 -10 16 -5
3 -10 2 -10 -4z"/>
<path d="M7738 5542 c-10 -15 -23 -35 -30 -45 -11 -14 -10 -19 2 -27 22 -14
24 -13 43 19 17 29 23 81 10 81 -5 0 -16 -12 -25 -28z"/>
<path d="M1691 5434 c0 -11 3 -14 6 -6 3 7 2 16 -1 19 -3 4 -6 -2 -5 -13z"/>
<path d="M1091 5134 c0 -11 3 -14 6 -6 3 7 2 16 -1 19 -3 4 -6 -2 -5 -13z"/>
<path d="M7051 5081 c-61 -57 -15 -96 49 -41 29 25 33 33 24 48 -18 27 -39 25
-73 -7z"/>
<path d="M6899 4969 c-18 -35 15 -54 83 -50 18 1 55 47 46 56 -3 3 -16 -4 -31
-15 -34 -27 -55 -25 -63 5 -8 31 -20 32 -35 4z"/>
<path d="M6561 4848 c-7 -57 -19 -152 -27 -213 -9 -60 -19 -146 -23 -190 -8
-81 -33 -275 -51 -398 -12 -81 -13 -117 -2 -117 19 1 99 213 138 370 8 30 18
69 24 85 5 17 12 50 16 75 5 37 15 53 55 92 51 48 59 70 34 104 -16 24 -11 34
17 34 10 0 18 6 18 14 0 8 11 28 25 44 41 49 29 92 -27 92 -45 0 -78 -40 -78
-94 0 -40 -3 -47 -30 -61 -30 -15 -30 -15 -50 17 -23 38 -25 57 -8 92 8 18 15
23 23 16 12 -10 75 22 75 40 0 5 14 17 31 25 22 12 29 22 27 38 -4 32 -51 35
-71 6 l-16 -22 -31 27 c-17 14 -37 26 -44 26 -7 0 -16 -37 -25 -102z"/>
<path d="M843 4870 c-13 -5 -23 -14 -23 -19 0 -13 22 -18 115 -27 79 -8 116
-6 129 7 27 25 -171 61 -221 39z"/>
<path d="M1275 4854 c-33 -33 28 -60 68 -30 23 18 22 22 -14 35 -39 14 -35 14
-54 -5z"/>
<path d="M440 4841 c0 -5 5 -13 10 -16 6 -3 10 -2 10 4 0 5 -4 13 -10 16 -5 3
-10 2 -10 -4z"/>
<path d="M6620 4740 c0 -5 5 -10 10 -10 6 0 10 5 10 10 0 6 -4 10 -10 10 -5 0
-10 -4 -10 -10z"/>
<path d="M6692 4508 c-7 -7 -12 -23 -12 -37 0 -15 -7 -39 -15 -54 -13 -26 -13
-34 4 -85 10 -31 21 -77 25 -102 15 -106 36 -130 82 -92 19 16 114 225 114
251 0 7 -14 9 -40 6 -22 -3 -58 -7 -80 -10 -34 -5 -40 -3 -40 14 0 10 9 30 21
45 23 29 17 50 -12 41 -16 -5 -20 -3 -17 11 4 21 -14 28 -30 12z"/>
<path d="M6936 4502 c-2 -4 -7 -25 -11 -46 -4 -21 -19 -68 -33 -105 -39 -106
-43 -101 73 -106 265 -10 305 -8 325 10 25 22 27 81 4 113 -14 20 -21 22 -65
16 -36 -5 -55 -3 -73 10 -14 9 -45 16 -70 16 -41 0 -47 4 -86 50 -41 49 -54
58 -64 42z"/>
<path d="M7475 4305 c-5 -2 -22 -6 -37 -9 -52 -12 -29 -26 41 -26 74 0 126 13
116 30 -6 9 -96 13 -120 5z"/>
<path d="M7724 4239 c-70 -12 -107 -27 -101 -42 2 -6 10 -11 16 -9 6 1 11 -2
11 -7 0 -13 -31 -18 -257 -41 -225 -23 -279 -31 -407 -66 -95 -25 -126 -41
-61 -31 146 22 150 22 175 -13 l23 -33 101 7 c109 7 348 36 355 42 2 2 2 5 0
7 -5 4 -202 -8 -310 -18 l-76 -8 -5 28 c-3 15 -1 28 6 31 19 7 537 72 631 80
50 4 99 11 110 16 13 5 -5 6 -47 3 l-68 -6 0 30 c0 26 -17 44 -38 40 -4 -1
-30 -5 -58 -10z"/>
<path d="M4647 4099 c7 -7 15 -10 18 -7 3 3 -2 9 -12 12 -14 6 -15 5 -6 -5z"/>
<path d="M808 4073 c-32 -2 -58 -8 -58 -13 0 -4 -9 -6 -20 -3 -16 4 -20 0 -20
-20 0 -35 9 -38 66 -23 63 17 116 44 109 56 -4 6 -9 9 -13 8 -4 -1 -33 -3 -64
-5z"/>
<path d="M983 4018 c-48 -19 -72 -48 -40 -48 35 0 142 38 142 51 0 22 -44 20
-102 -3z"/>
<path d="M7131 3906 c-20 -24 -6 -66 23 -66 30 0 49 22 44 52 -4 28 -48 37
-67 14z"/>
<path d="M1553 3780 c-26 -10 -27 -14 -13 -40 11 -21 64 -42 85 -34 31 12 10
67 -30 77 -11 3 -30 2 -42 -3z"/>
<path d="M1818 3709 c-17 -13 -28 -30 -28 -45 0 -24 40 -74 58 -74 18 0 51 35
57 61 6 25 3 31 -39 67 -19 15 -15 15 -48 -9z"/>
<path d="M1442 3688 c-19 -19 -14 -56 8 -63 43 -14 69 44 31 65 -24 13 -24 13
-39 -2z"/>
<path d="M1938 3579 c-39 -22 -5 -79 34 -58 21 11 24 39 6 57 -14 14 -18 14
-40 1z"/>
<path d="M1533 3512 c-28 -4 -29 -26 -3 -52 27 -27 67 -26 75 0 11 36 -23 60
-72 52z"/>
<path d="M7245 3421 c-7 -12 26 -31 52 -31 10 0 43 -10 73 -21 57 -22 174 -31
198 -16 21 14 -6 37 -44 37 -18 0 -56 9 -84 20 -54 21 -184 28 -195 11z"/>
<path d="M5503 3213 c9 -9 19 -14 23 -11 10 10 -6 28 -24 28 -15 0 -15 -1 1
-17z"/>
<path d="M6951 3098 c-36 -37 -39 -58 -12 -82 37 -34 70 11 71 97 0 26 -24 20
-59 -15z"/>
<path d="M1706 3099 c-30 -24 -32 -62 -3 -67 12 -3 22 7 33 34 20 47 6 62 -30
33z"/>
<path d="M1560 2911 c-5 -11 -10 -30 -10 -42 0 -21 1 -22 20 -4 20 18 28 65
10 65 -5 0 -14 -9 -20 -19z"/>
<path d="M1377 2753 c-14 -13 -7 -51 14 -77 23 -29 33 -26 42 15 10 40 -32 87
-56 62z"/>
<path d="M5590 2740 c20 -13 43 -13 35 0 -3 6 -16 10 -28 10 -18 0 -19 -2 -7
-10z"/>
<path d="M1690 2704 c-13 -33 -13 -39 3 -52 16 -14 32 -3 40 26 12 51 -25 74
-43 26z"/>
<path d="M4795 2651 c-3 -6 3 -15 14 -21 24 -12 42 7 20 21 -18 11 -26 11 -34
0z"/>
<path d="M4950 2635 c0 -29 38 -58 71 -53 38 5 32 25 -14 52 -54 32 -57 32
-57 1z"/>
<path d="M4740 2641 c0 -15 28 -33 40 -26 8 5 8 11 -1 21 -13 15 -39 19 -39 5z"/>
<path d="M4570 2612 c0 -5 7 -13 16 -16 10 -4 14 -1 12 6 -5 15 -28 23 -28 10z"/>
<path d="M2247 2313 c-40 -45 -49 -142 -21 -214 14 -35 15 -42 3 -50 -28 -17
-39 -10 -39 26 0 20 -8 50 -17 68 l-18 32 -3 -47 c-3 -42 -8 -51 -44 -79 -39
-32 -40 -34 -34 -79 5 -36 3 -50 -9 -60 -17 -14 -20 -46 -6 -55 6 -3 14 3 20
12 8 14 10 2 11 -50 0 -63 3 -71 30 -99 25 -25 33 -28 45 -18 8 7 15 19 15 26
0 8 11 47 25 86 15 42 25 94 25 125 0 54 10 71 56 100 17 11 17 12 2 12 -22 1
-23 14 -3 31 19 16 19 30 1 30 -13 0 -13 4 0 35 21 51 13 174 -12 182 -6 2
-18 -5 -27 -14z"/>
<path d="M6371 2316 c-16 -19 -25 -78 -17 -110 3 -13 18 -39 32 -56 29 -34
159 -104 174 -95 27 16 5 64 -73 164 -45 58 -87 106 -93 108 -6 2 -16 -3 -23
-11z"/>
<path d="M2446 2263 c-27 -27 -28 -46 -1 -23 16 13 39 50 32 50 -2 0 -16 -12
-31 -27z"/>
<path d="M5048 2254 c-10 -9 45 -84 61 -84 9 0 33 3 54 6 33 6 37 10 37 35 0
39 -30 54 -75 38 -27 -10 -38 -10 -47 -1 -13 13 -22 15 -30 6z"/>
<path d="M4952 2218 c-5 -7 -13 -29 -17 -48 -7 -33 -18 -60 -71 -178 -13 -29
-32 -56 -42 -59 -9 -3 -36 -24 -60 -45 -23 -21 -54 -44 -70 -51 -15 -6 -42
-22 -61 -34 -24 -16 -49 -23 -83 -23 -62 0 -109 -33 -135 -95 -10 -24 -28 -48
-40 -54 -32 -15 -60 -78 -45 -102 7 -11 9 -31 6 -45 -6 -24 -5 -25 14 -15 15
8 21 8 25 -2 2 -7 8 -3 16 11 11 20 14 21 39 8 45 -23 61 -49 70 -114 9 -66
15 -78 31 -67 17 10 13 52 -10 96 -12 24 -17 48 -13 57 5 14 9 10 20 -15 16
-38 17 -38 50 -16 22 14 29 15 47 3 19 -11 23 -10 35 9 8 11 23 21 33 21 10 0
63 -25 116 -55 96 -54 123 -64 123 -46 0 11 -136 88 -200 114 -25 10 -55 28
-66 42 -13 14 -29 22 -40 19 -11 -2 -25 0 -32 5 -11 6 -8 14 13 35 24 24 27
33 22 71 l-6 44 62 35 c66 36 211 181 203 201 -2 6 16 42 40 81 24 38 44 72
44 76 0 4 14 36 30 70 17 34 30 65 30 70 0 13 -67 9 -78 -4z"/>
<path d="M2416 2193 c-4 -9 0 -23 9 -32 13 -14 15 -13 15 11 0 32 -15 45 -24
21z"/>
<path d="M3510 2126 c0 -14 5 -28 10 -31 6 -4 10 7 10 24 0 17 -4 31 -10 31
-5 0 -10 -11 -10 -24z"/>
<path d="M5296 2105 c-16 -30 -17 -38 -6 -66 12 -27 17 -30 43 -25 42 8 57 24
57 56 0 21 -8 34 -34 49 -18 12 -35 21 -37 21 -3 0 -13 -16 -23 -35z"/>
<path d="M5405 2023 c8 -47 11 -49 30 -33 27 23 12 70 -23 70 -11 0 -13 -9 -7
-37z"/>
<path d="M5250 1966 c0 -23 9 -45 25 -63 l24 -28 1 43 c0 49 -14 82 -35 82
-10 0 -15 -11 -15 -34z"/>
<path d="M5034 1975 c-8 -19 11 -65 26 -65 16 0 12 56 -5 70 -12 10 -16 9 -21
-5z"/>
<path d="M5459 1906 c-7 -14 -8 -33 -5 -43 7 -17 8 -17 22 1 16 23 18 52 4 61
-5 3 -15 -5 -21 -19z"/>
<path d="M5382 1903 c-16 -29 -15 -48 3 -63 21 -17 31 11 18 53 -9 31 -9 31
-21 10z"/>
<path d="M3172 1877 c-7 -8 -15 -35 -18 -62 -6 -43 -5 -47 12 -43 14 2 22 16
28 51 10 52 -1 79 -22 54z"/>
<path d="M3886 1871 c-16 -18 -16 -19 11 -24 36 -7 45 0 33 24 -13 24 -22 24
-44 0z"/>
<path d="M5103 1868 c-11 -13 -26 -34 -33 -48 -7 -14 -32 -54 -55 -90 -56 -84
-75 -144 -75 -231 0 -109 36 -159 86 -120 14 11 53 29 88 41 146 48 199 113
198 240 -1 86 -24 142 -80 193 -50 45 -97 50 -129 15z"/>
<path d="M2320 1835 c-1 -27 -5 -59 -9 -69 -10 -27 12 -85 40 -107 24 -18 82
-21 108 -5 14 9 15 63 0 72 -6 3 -9 19 -5 34 6 34 -1 42 -25 29 -18 -9 -46 14
-94 77 -13 17 -14 14 -15 -31z"/>
<path d="M3570 1869 c-8 -4 -23 -10 -32 -13 -11 -3 -15 -11 -12 -20 3 -8 -3
-19 -14 -25 -11 -6 -22 -23 -25 -38 -3 -16 -9 -41 -13 -57 -4 -18 -2 -31 5
-36 10 -5 7 -17 -8 -46 -12 -21 -21 -52 -21 -67 0 -36 27 -94 47 -101 13 -5
15 0 9 34 -6 36 -4 40 14 40 11 0 22 6 24 13 2 6 9 30 16 51 11 35 11 41 -6
53 -17 13 -17 14 3 35 21 20 21 22 5 35 -15 13 -14 14 11 8 22 -4 33 0 52 22
28 32 31 60 10 90 -17 24 -44 33 -65 22z"/>
<path d="M3128 1863 c7 -3 16 -2 19 1 4 3 -2 6 -13 5 -11 0 -14 -3 -6 -6z"/>
<path d="M5780 1848 c1 -23 39 -98 50 -98 18 0 11 34 -15 73 -27 39 -35 45
-35 25z"/>
<path d="M5602 1724 c-20 -41 -23 -74 -6 -81 28 -11 47 51 25 86 -7 11 -11 10
-19 -5z"/>
<path d="M6061 1714 c-26 -32 -29 -102 -6 -111 21 -7 55 25 55 52 0 36 -12 85
-21 85 -4 0 -17 -12 -28 -26z"/>
<path d="M3339 1714 c-15 -18 -2 -47 23 -52 16 -3 42 51 31 62 -12 11 -41 6
-54 -10z"/>
<path d="M3975 1720 c-8 -14 3 -30 21 -30 8 0 14 9 14 20 0 21 -24 28 -35 10z"/>
<path d="M2721 1684 c-28 -35 -28 -95 -1 -112 28 -17 98 11 106 44 9 37 -3 69
-31 82 -38 18 -51 15 -74 -14z"/>
<path d="M2972 1691 c-16 -9 -3 -72 15 -78 17 -6 36 35 29 63 -7 25 -21 30
-44 15z"/>
<path d="M5412 1558 c-18 -18 -15 -67 4 -75 21 -8 35 15 32 51 -3 33 -18 42
-36 24z"/>
<path d="M3404 1518 c4 -25 2 -39 -8 -47 -12 -10 -13 -9 -9 8 3 14 -1 23 -12
28 -23 8 -47 -23 -44 -57 1 -14 -2 -34 -6 -44 -5 -11 -3 -44 3 -76 7 -31 12
-87 12 -124 0 -53 5 -74 21 -98 33 -45 59 -35 75 30 8 29 20 65 28 80 8 15 17
61 21 104 7 74 7 77 -18 93 -14 9 -24 22 -22 28 7 19 -20 100 -35 105 -9 3
-11 -4 -6 -30z"/>
<path d="M4156 1534 c-10 -27 -7 -44 9 -44 9 0 15 9 15 24 0 30 -15 42 -24 20z"/>
<path d="M2691 1484 l-34 -14 23 -25 24 -26 23 24 c15 15 21 29 17 40 -7 20
-9 20 -53 1z"/>
<path d="M3073 1493 c-20 -7 -15 -51 6 -63 25 -13 48 -4 57 23 10 31 -27 55
-63 40z"/>
<path d="M2227 1443 c-11 -11 -8 -40 6 -51 16 -14 57 -4 57 14 0 7 -10 20 -22
28 -25 18 -32 19 -41 9z"/>
<path d="M2738 1417 c-28 -11 -36 -31 -18 -42 13 -8 60 24 60 41 0 16 -4 16
-42 1z"/>
<path d="M4600 1358 c1 -13 12 -43 25 -68 28 -53 38 -40 27 35 -6 41 -11 51
-30 53 -17 3 -22 -1 -22 -20z"/>
<path d="M3592 1348 c5 -32 28 -35 28 -4 0 17 -5 26 -16 26 -10 0 -14 -7 -12
-22z"/>
<path d="M4056 1308 c-3 -29 -6 -92 -6 -140 0 -73 3 -88 16 -88 23 0 43 60 54
167 11 103 8 113 -36 113 -18 0 -22 -8 -28 -52z"/>
<path d="M2553 1313 c9 -2 23 -2 30 0 6 3 -1 5 -18 5 -16 0 -22 -2 -12 -5z"/>
<path d="M4454 1265 c-4 -17 -9 -23 -14 -15 -11 17 -40 -28 -40 -62 0 -36 17
-44 43 -20 12 11 33 22 47 24 32 4 51 51 29 72 -7 8 -24 17 -36 20 -18 6 -24
2 -29 -19z"/>
<path d="M2345 1213 c-7 -75 -3 -93 20 -93 40 0 47 95 11 137 l-24 27 -7 -71z"/>
<path d="M4869 1224 c-13 -14 -36 -32 -51 -40 -32 -17 -101 -18 -130 -3 -25
13 -36 4 -22 -19 7 -11 29 -19 60 -22 l49 -5 0 -70 c0 -59 3 -70 18 -73 43 -9
62 55 32 108 -8 14 -14 31 -15 38 0 17 39 15 46 -3 9 -23 42 -18 59 9 11 17
14 35 9 65 -8 48 -21 51 -55 15z"/>
<path d="M4946 1128 c-45 -64 13 -181 73 -149 15 8 21 22 21 44 0 18 7 41 15
51 19 25 19 36 -1 36 -9 0 -27 9 -41 20 -33 26 -48 25 -67 -2z"/>
<path d="M4227 1074 c-11 -11 -8 -72 3 -79 19 -12 41 17 38 49 -3 29 -25 46
-41 30z"/>
<path d="M3831 739 c-19 -54 -14 -93 15 -120 25 -23 27 -40 9 -81 -16 -39 13
-15 34 27 l23 46 -21 52 c-11 29 -23 64 -26 80 -7 36 -20 34 -34 -4z"/>
<path d="M2397 658 c-10 -39 20 -138 42 -138 5 0 31 -20 57 -43 50 -44 92 -72
100 -65 2 3 -25 27 -59 55 -69 55 -97 101 -105 170 -5 46 -26 58 -35 21z"/>
<path d="M3606 642 c-2 -4 -8 -36 -12 -70 -5 -52 -4 -63 10 -68 38 -15 64 48
41 102 -14 34 -31 49 -39 36z"/>
<path d="M2315 129 c-4 -6 2 -13 13 -16 11 -2 22 -13 25 -23 2 -10 15 -23 27
-30 22 -12 23 -11 16 21 -3 18 -10 36 -14 40 -14 13 -61 19 -67 8z"/>
</g>
</svg>
