<svg id="Layer_1" data-name="Layer 1" xmlns="http://www.w3.org/2000/svg" viewBox="0 0 4265.98 617.42"><defs><style>.cls-1{fill:#fff;}</style></defs><title>Artboard 2</title><path class="cls-1" d="M352.9,365.18q-9.7,41.9-73.92,59.87-47.79,13.57-119.37,12.39-52.65-.92-76-6.32Q74.32,429,48,416.22,17.57,401.48,0,388.68l4.85-20.95Q10.67,340.34,41.72,326l130.91,44.17Q226.17,380.49,279,363l2.49-10.71q-21-44.4-97.46-73.38-60.56-22.23-120.61-44.35Q7.6,205.16,20.11,151.09q8-34.58,67.63-65.95,50.12-25.85,116.8-41.21,62.22-13.82,88-7.84,36,8.34,40.69,10.45,18.84,9.49,11.82,31-8.86,27.21-61.41,32.49-49.55,3.42-98.6,6.93-55,9.33-69.07,45.6,48.48,18.91,96.47,37.73,72.3,29.07,107,61.21,47.11,44.78,33.47,103.72"/><path class="cls-1" d="M3325.19,365.18q-9.71,41.9-73.91,59.87-47.79,13.57-119.37,12.39-52.66-.92-76-6.32-9.26-2.13-35.55-14.9-30.46-14.75-48-27.54l4.85-20.95Q2983,340.34,3014,326l130.91,44.17q53.54,10.35,106.36-7.19l2.48-10.71q-21-44.4-97.46-73.38-60.55-22.23-120.6-44.35-55.83-29.35-43.3-83.42,8-34.58,67.62-65.95,50.11-25.85,116.81-41.21,62.2-13.82,88-7.84,36,8.34,40.69,10.45,18.84,9.49,11.82,31Q3308.51,104.71,3256,110q-49.56,3.42-98.61,6.93-55,9.33-69.07,45.6,48.48,18.91,96.48,37.73,72.3,29.07,106.95,61.21,47.1,44.78,33.46,103.72"/><path class="cls-1" d="M743.72,106q0,41.51-42.25,77.25t-96.25,38.25q-17.51,1-45-2-31-3-43.5-3a159.06,159.06,0,0,0-34,3.5q-9,19.5-22.5,56.5-20.5,56-20.5,77.5v54q0,5-4,14-4.5,11-10.5,11-18.5,0-31-13t-12.5-27.5q0-14,30.5-186,5-31,17-95,2-13.5,4-27,3.5-18,9-28.5,7-5,21-17a23.92,23.92,0,0,1,5.5-.5q9.5,0,15.5,9t12,18.5q77-32.49,130-40a73.84,73.84,0,0,1,9-.5q35,0,68.5,20.5,40,24,40,60m-69-4q0-27.49-53.5-27.5-9.5,0-31.5,11.5-28,14.51-32.5,16-11,4-26,14-21,13.5-21,22.5,0,9.51,7.5,11.5c1,.34,4.67.5,11,.5a405.55,405.55,0,0,0,84.5-8.5q37-8,49.25-16.5T674.72,102"/><path class="cls-1" d="M1349.22,101.51q0,31-45,51-32.52,14.51-85.5,22-25.5,2.51-50.5,5,29.49,16,59,31.5,44,24.51,67.51,45.52c12.42,11.09,50.28,53,33.88,71-13.65,14.92-35.65-16.92-44.5-24.79-19.43-17.28-39.78-34-65.1-41.64-37.38-11.32-77.81-7.56-116.29-7.56q-11.52,0-34.5-6-30-8.49-30-19.5,0-35.49,58-62,16-7,66-21.5,28-8.49,42.5-14,31.5-12.49,43.5-25.5-3-8.49-23-8.5-38.52,0-105.5,18.5-73,20.51-81,39c-25.87,59.83-61,119.82-81.82,181.56-17.57,52-98.06,237.52-126.55,280.11a3.9,3.9,0,0,1-7.09-2.74c7.45-51.08,58.43-198.14,65.46-225.93q7-26.49,32-92,28-72,45.5-131.5-2.52-1.5-22-6.5c-10-3-15.18-5.66-15.5-8q-1-9,3.5-24,6.48-22.5,6.5-25,.48,0,24-9,16-6,20-11.5,7.5-12,15.5-23.5,9-10,28-10,3,0,28.75,3.5t29.75,3.5q4.5,0,30.5-10,32-12.49,54.5-18.5,37.5-10,70-10,39,0,70.5,19.5,39,24,39,67.5"/><path class="cls-1" d="M2555.51,101.51q0,31-45,51Q2478,167,2425,174.51q-25.5,2.51-50.5,5,29.5,16,59,31.5,44,24.51,67.52,45.52c12.42,11.09,50.28,53,33.88,71-13.65,14.92-35.65-16.92-44.5-24.79-19.43-17.28-39.78-34-65.1-41.64-37.38-11.32-77.81-7.56-116.3-7.56q-11.51,0-34.5-6-30-8.49-30-19.5,0-35.49,58-62,16-7,66-21.5,28-8.49,42.5-14,31.5-12.49,43.5-25.5-3-8.49-23-8.5Q2393,96.51,2326,115q-73,20.51-81,39c-25.87,59.83-61,119.82-81.82,181.56-17.57,52-98.06,237.52-126.55,280.11a3.9,3.9,0,0,1-7.09-2.74C2037,561.86,2088,414.8,2095,387q7-26.49,32-92,28-72,45.5-131.5-2.51-1.5-22-6.5-15-4.5-15.5-8-1-9,3.5-24,6.49-22.5,6.5-25,.49,0,24-9,16-6,20-11.5,7.5-12,15.5-23.5,9-10,28-10,3,0,28.75,3.5T2291,53q4.5,0,30.5-10,32-12.49,54.5-18.5,37.5-10,70-10,39,0,70.5,19.5,39,24,39,67.5"/><path class="cls-1" d="M1509.84,21c5.78-1.28,9.8-1.09,10.5,5.41,2.45,22.5-14.18,48.32-21.55,69-12.57,35.25-22.07,71.45-29.94,108-5.68,26.36-8.75,52.2-17.63,77.83Q1438.8,317,1424.59,400.61a18.72,18.72,0,0,1-10.16,13.62,25.65,25.65,0,0,1-11.21,3q-33,0-33-47.5,0-43,16-90,7.5-23,41-101.75c11.28-26.53,25.08-51.88,38.07-77.59,12.67-25.06,23-51.39,38.49-74.91a9.89,9.89,0,0,1,6.06-4.5"/><path class="cls-1" d="M865.84,27.25c5.78-1.29,9.8-1.09,10.5,5.4,2.45,22.5-14.18,48.32-21.55,69-12.57,35.26-22.07,71.46-29.94,108-5.68,26.35-8.75,52.19-17.63,77.82q-12.42,35.79-26.63,119.36a18.68,18.68,0,0,1-10.16,13.61,25.65,25.65,0,0,1-11.21,3q-33,0-33-47.5,0-43,16-90,7.5-23,41-101.75c11.28-26.53,25.08-51.87,38.07-77.58,12.67-25.06,23-51.39,38.49-74.92a9.87,9.87,0,0,1,6.06-4.49"/><path class="cls-1" d="M2069.05,7.13c-8.89,7.94-21.41,11.17-32.8,13.19-12.43,2.21-24.38,5.81-36.64,8.81-34.39,8.44-69,16.12-103.52,23.86-46.73,10.46-93.73,20.31-140,32.87-4.5,1.23-9.17,2.62-12.53,5.85-3.55,3.42-5.09,8.36-6.51,13.08-28.53,95.39-57.26,192-61.9,291.41-.54,11.68-1.39,24.8-10.18,32.52-12.52,11-33.91,2.68-41.8-12s-6.14-32.49-3.53-49c13.51-85.31,44-168.35,45.14-254.72,0-2.78,0-5.73-1.48-8.09-2.82-4.51-9.2-4.72-14.51-4.42l-76.6,4.43c-4.4.25-9.11.43-12.86-1.89-4.12-2.55-6-7.49-7.21-12.19-4-16.2-5.2-44.49,15.16-50.13,6.84-1.9,14.09-1.21,21.19-.87,54.32,2.62,106.64,8.52,160.25,3.37,64.26-6.17,128.37-13.4,192-24.12,20.81-3.51,42-5.19,63-7.39,11.08-1.17,22.08-3,33.15-4.34,8.53-1,24.84-6.41,32.14-.28"/><path class="cls-1" d="M4292,2.88c-8.89,7.94-21.4,11.17-32.8,13.19-12.43,2.21-24.38,5.81-36.64,8.81-34.39,8.44-69,16.12-103.51,23.86-46.74,10.46-93.74,20.31-140,32.87-4.5,1.23-9.18,2.62-12.54,5.85-3.55,3.42-5.09,8.36-6.5,13.08-28.53,95.39-57.27,192-61.9,291.41-.55,11.68-1.4,24.8-10.18,32.52-12.52,11-33.91,2.68-41.81-12s-6.13-32.49-3.53-49c13.51-85.31,44-168.35,45.14-254.72,0-2.78,0-5.73-1.48-8.09-2.81-4.51-9.19-4.72-14.51-4.42l-76.6,4.43c-4.4.25-9.11.43-12.85-1.89-4.13-2.55-6.05-7.49-7.21-12.19-4-16.2-5.21-44.49,15.15-50.13,6.84-1.9,14.09-1.21,21.19-.87,54.32,2.62,106.64,8.52,160.25,3.37,64.26-6.17,128.37-13.4,192-24.12,20.81-3.51,42-5.19,63-7.39,11.09-1.17,22.08-3,33.15-4.34,8.54-1,24.84-6.41,32.14-.28"/><path class="cls-1" d="M3603.26,203c-42.33,5.73-110.11,24.54-114.4,35.86-10.83,28.59-15.26,51.3-19.89,86,23.81,10.92,51.56,2.1,76.2-6.79l82.21-29.67c11.06-4,22.42-8,34.17-7.86a49.75,49.75,0,0,1,41.29,23.94c1.65,2.78,3.06,5.92,2.75,9.14s-2.12,5.8-4,8.27c-12.88,16.88-30.93,29-49.27,39.71a531.92,531.92,0,0,1-107.51,47.68c-32.71,10.35-66.93,17.57-101.16,15.36-16.49-1.06-33.73-4.74-46-15.84-14.43-13.09-19.09-34.09-18.21-53.55,2.21-48.67,19.59-98,34.31-144q24.09-75.21,55.3-147.89c3.85-9,8.08-18.26,15.83-24.16,6.65-5.07,15.13-7,23.37-8.49A346.52,346.52,0,0,1,3689.4,46.44c9.92,3.67,21.72,13.26,16.23,22.29-1.9,3.12-5.43,4.82-8.84,6.15C3647.84,94,3587.05,71.4,3543,100c-20.73,13.48-43,54.8-43.73,79.54-.24,7.95,27,5.38,81,.38,7.22-.67,71.33-4.28,73-1,9.36,18.43-18.41,19.71-50,24"/><path class="cls-1" d="M2817.41,203c-42.32,5.73-110.1,24.54-114.39,35.86-10.83,28.59-15.26,51.3-19.89,86,23.81,10.92,51.56,2.1,76.2-6.79l82.21-29.67c11.06-4,22.42-8,34.17-7.86A49.75,49.75,0,0,1,2917,304.43c1.65,2.78,3.06,5.92,2.75,9.14s-2.12,5.8-4,8.27c-12.88,16.88-30.94,29-49.27,39.71A531.76,531.76,0,0,1,2759,409.23c-32.7,10.35-66.92,17.57-101.15,15.36-16.49-1.06-33.73-4.74-46-15.84-14.43-13.09-19.09-34.09-18.21-53.55,2.21-48.67,19.59-98,34.31-144Q2652,136,2683.24,63.28c3.85-9,8.07-18.26,15.82-24.16,6.66-5.07,15.14-7,23.37-8.49a346.57,346.57,0,0,1,181.13,15.81c9.92,3.67,21.72,13.26,16.22,22.29-1.9,3.12-5.43,4.82-8.83,6.15C2862,94,2801.21,71.4,2757.16,100c-20.73,13.48-43,54.8-43.73,79.54-.25,7.95,27,5.38,81,.38,7.23-.67,71.34-4.28,73-1,9.37,18.43-18.4,19.71-50,24"/></svg>