<?xml version="1.0" encoding="utf-8"?>
<!-- Generator: Adobe Illustrator 22.1.0, SVG Export Plug-In . SVG Version: 6.00 Build 0)  -->
<svg version="1.1" id="Capa_1" xmlns="http://www.w3.org/2000/svg" xmlns:xlink="http://www.w3.org/1999/xlink" x="0px" y="0px"
	 viewBox="0 0 40.1 40.1" style="enable-background:new 0 0 40.1 40.1;" xml:space="preserve">
<style type="text/css">
	.st0{fill:#FF9900;}
</style>
<g>
	<g>
		<path class="st0" d="M29.2,4.1l-0.5,0.5V4.1h-2.5C25.2,5.8,22.8,7,20.1,7c-2.7,0-5.1-1.2-6.2-2.9h-2.5v0.5l-0.5-0.5L2,13l4.9,4.9
			l4.5-4.5V36h17.3V13.4l4.5,4.5l4.9-4.9L29.2,4.1z"/>
		<path class="st0" d="M28.7,38H11.4c-1.1,0-2-0.9-2-2V18.2l-1.1,1.1c-0.4,0.4-0.9,0.6-1.4,0.6l0,0c-0.5,0-1-0.2-1.4-0.6l-4.9-4.9
			c-0.8-0.8-0.8-2,0-2.8l8.9-8.9c0.4-0.4,1.1-0.6,1.7-0.6c0.1,0,0.2,0,0.3,0h2.5c0.7,0,1.3,0.3,1.7,0.9c0.8,1.2,2.6,2,4.5,2
			s3.7-0.8,4.5-2c0.4-0.6,1-0.9,1.7-0.9h2.5c0.1,0,0.2,0,0.3,0c0.1,0,0.2,0,0.2,0c0,0,0,0,0,0c0.5,0,1,0.2,1.4,0.6l8.9,8.9
			c0.8,0.8,0.8,2,0,2.8l-4.9,4.9c-0.4,0.4-0.9,0.6-1.4,0.6c0,0,0,0,0,0c-0.5,0-1-0.2-1.4-0.6l-1.1-1.1V36C30.7,37.1,29.8,38,28.7,38
			z M13.4,34h13.3V13.4c0-0.8,0.5-1.5,1.2-1.8c0.7-0.3,1.6-0.1,2.2,0.4l3.1,3.1l2-2l-6.4-6.4c-0.3,0-0.6,0-0.9-0.1
			c-0.2-0.1-0.4-0.2-0.6-0.4h-0.2C25.6,7.9,23,9,20.1,9s-5.5-1.1-7.2-2.9h-0.2c-0.2,0.1-0.4,0.3-0.6,0.4c-0.3,0.1-0.6,0.2-0.9,0.1
			L4.8,13l2,2l3.1-3.1c0.6-0.6,1.4-0.7,2.2-0.4s1.2,1,1.2,1.8L13.4,34L13.4,34z"/>
	</g>
</g>
</svg>
